<svg width="31" height="19" viewBox="0 0 31 19" fill="none" xmlns="http://www.w3.org/2000/svg">
<path d="M30 0H27.5C27.224 0 27 0.224 27 0.5C27 0.776 27.224 1 27.5 1H29.5V14H28.5V2.5C28.5 2.224 28.276 2 28 2H23.5C23.224 2 23 2.224 23 2.5C23 2.776 23.224 3 23.5 3H27.5V16H26.5V4.5C26.5 4.224 26.276 4 26 4H3.5V3H19.964H19.995C20.271 3 20.495 2.776 20.495 2.5C20.495 2.224 20.271 2 19.995 2H19.964H5.5V1H24.0155C24.2915 1 24.5155 0.776 24.5155 0.5C24.5155 0.224 24.2915 0 24.0155 0H5C4.724 0 4.5 0.224 4.5 0.5V2H3C2.724 2 2.5 2.224 2.5 2.5V4H1C0.724 4 0.5 4.224 0.5 4.5V18.5C0.5 18.776 0.724 19 1 19H26C26.276 19 26.5 18.776 26.5 18.5V17H28C28.276 17 28.5 16.776 28.5 16.5V15H30C30.276 15 30.5 14.776 30.5 14.5V0.5C30.5 0.224 30.276 0 30 0ZM25.5 18H1.5V5H25.5V18Z" fill="#4B4B4B"/>
<path d="M24 8.5C22.897 8.5 22 7.603 22 6.5C22 6.224 21.776 6 21.5 6H5.5C5.224 6 5 6.224 5 6.5C5 7.603 4.103 8.5 3 8.5C2.724 8.5 2.5 8.724 2.5 9V14C2.5 14.276 2.724 14.5 3 14.5C4.103 14.5 5 15.397 5 16.5C5 16.776 5.224 17 5.5 17H21.5C21.776 17 22 16.776 22 16.5C22 15.397 22.897 14.5 24 14.5C24.276 14.5 24.5 14.276 24.5 14V9C24.5 8.724 24.276 8.5 24 8.5ZM21.045 16H5.955C5.7435 14.7465 4.7535 13.757 3.5 13.545V9.455C4.7535 9.2435 5.743 8.2535 5.955 7H21.045C21.2565 8.2535 22.2465 9.243 23.5 9.455V13.5455C22.2465 13.757 21.257 14.7465 21.045 16Z" fill="#4B4B4B"/>
<path d="M21.5 2C21.224 2 21 2.224 21 2.5C21 2.776 21.224 3 21.5 3H22C22.276 3 22.5 2.776 22.5 2.5C22.5 2.224 22.276 2 22 2H21.5Z" fill="#4B4B4B"/>
<path d="M25.5 1H26C26.276 1 26.5 0.776 26.5 0.5C26.5 0.224 26.276 0 26 0H25.5C25.224 0 25 0.224 25 0.5C25 0.776 25.224 1 25.5 1Z" fill="#4B4B4B"/>
<path d="M13.5 8C11.57 8 10 9.57 10 11.5C10 13.43 11.57 15 13.5 15C15.43 15 17 13.43 17 11.5C17 9.57 15.43 8 13.5 8ZM13.5 14C12.1215 14 11 12.8785 11 11.5C11 10.1215 12.1215 9 13.5 9C14.8785 9 16 10.1215 16 11.5C16 12.8785 14.8785 14 13.5 14Z" fill="#4B4B4B"/>
</svg>
