<svg width="15" height="15" viewBox="0 0 15 15" fill="none" xmlns="http://www.w3.org/2000/svg">
<path d="M12.2812 9.5C12.5 9.5 12.7188 9.71875 12.7188 9.9375V13.4375C12.7188 14.1758 12.1172 14.75 11.4062 14.75H1.78125C1.04297 14.75 0.46875 14.1758 0.46875 13.4375V3.8125C0.46875 3.10156 1.04297 2.5 1.78125 2.5H6.15625C6.375 2.5 6.59375 2.71875 6.59375 2.9375V3.8125C6.59375 4.05859 6.375 4.25 6.15625 4.25H2.21875V13H10.9688V9.9375C10.9688 9.71875 11.1602 9.5 11.4062 9.5H12.2812ZM13.8125 0.75C14.168 0.75 14.4688 1.05078 14.4688 1.40625V4.90625C14.4688 5.50781 13.7578 5.78125 13.3477 5.37109L12.3633 4.41406L5.69141 11.0586C5.58203 11.1953 5.41797 11.2773 5.22656 11.2773C5.0625 11.2773 4.89844 11.1953 4.76172 11.0586L4.16016 10.457C4.02344 10.3477 3.94141 10.1836 3.94141 9.99219C3.94141 9.80078 4.02344 9.63672 4.16016 9.52734L10.8047 2.85547L9.84766 1.87109C9.41016 1.46094 9.71094 0.75 10.3125 0.75H13.8125Z" fill="#00617E"/>
</svg>
