<svg width="22" height="31" viewBox="0 0 22 31" fill="none" xmlns="http://www.w3.org/2000/svg">
<path d="M10.5761 23.7557C8.62092 23.7557 6.99633 25.3661 6.99633 27.3041C6.99633 29.2422 8.62092 30.8164 10.5761 30.8164C12.5313 30.8164 14.1194 29.2422 14.1194 27.3041C14.1194 25.3661 12.4948 23.7557 10.5761 23.7557ZM11.6085 0.816406C5.74087 0.816406 1.6074 3.56068 0.5 9.77901L6.51565 10.8043C6.99633 7.36446 8.28627 5.3158 11.0548 5.3158C13.158 5.3158 14.671 6.85179 14.671 9.23016C14.671 11.3512 13.8598 12.8148 11.4604 14.974C8.95152 17.278 8.1017 18.8522 8.1017 21.1944H12.7889C13.1945 19.6946 14.1924 18.5969 16.7013 16.7674C20.281 14.1698 21.5 12.1574 21.5 9.15778C21.5 3.66924 17.7357 0.816406 11.6085 0.816406Z" fill="#4B4B4B"/>
</svg>
