<svg width="30" height="31" viewBox="0 0 30 31" fill="none" xmlns="http://www.w3.org/2000/svg">
<path d="M15 0.427246C6.73134 0.427246 0 7.15859 0 15.4272C0 23.6959 6.73134 30.4272 15 30.4272C23.2687 30.4272 30 23.6959 30 15.4272C30 7.15859 23.2687 0.427246 15 0.427246ZM21.1194 9.58396L17.2239 14.8302H19.1194C19.7388 14.8302 20.2388 15.3302 20.2388 15.9496C20.2388 16.569 19.7388 17.069 19.1194 17.069H16.1194V17.9571H19.1194C19.7388 17.9571 20.2388 18.4571 20.2388 19.0765C20.2388 19.6959 19.7388 20.1959 19.1194 20.1959H16.1194V22.8302C16.1194 23.4496 15.6194 23.9496 15 23.9496C14.3806 23.9496 13.8806 23.4496 13.8806 22.8302V20.1959H10.8806C10.2612 20.1959 9.76119 19.6959 9.76119 19.0765C9.76119 18.4571 10.2612 17.9571 10.8806 17.9571H13.8806V17.069H10.8806C10.2612 17.069 9.76119 16.569 9.76119 15.9496C9.76119 15.3302 10.2612 14.8302 10.8806 14.8302H12.7761L8.8806 9.58396C8.51493 9.08396 8.6194 8.38993 9.11194 8.0168C9.61194 7.65113 10.306 7.7556 10.6791 8.24814L15 14.069L19.3209 8.24814C19.6866 7.74814 20.3881 7.65113 20.8881 8.0168C21.3806 8.38993 21.4851 9.09142 21.1194 9.58396Z" fill="#4B4B4B"/>
</svg>
