<svg width="20" height="26" viewBox="0 0 20 26" fill="none" xmlns="http://www.w3.org/2000/svg">
<path d="M15.9185 20.8931H13.1367L14.6756 22.6027H5.3244L6.86334 20.8931H4.0815L0 25.4273H2.78184L4.2538 23.792H15.7462L17.2182 25.4273H20L15.9185 20.8931Z" fill="#4B4B4B"/>
<path d="M17.012 2.18146C14.9168 1.06104 12.5312 0.427246 10.0004 0.427246C7.46961 0.427246 5.08401 1.06104 2.98881 2.18146C1.93303 2.74588 1.2832 3.82863 1.2832 4.99761V16.9084C1.2832 18.2469 2.40289 19.3321 3.78384 19.3321H16.2165C17.5974 19.3321 18.7171 18.2469 18.7171 16.9084V4.99761C18.7176 3.82863 18.0683 2.74588 17.012 2.18146ZM8.08314 2.43418C8.08314 1.91436 8.51824 1.49266 9.05456 1.49266H10.9463C11.4826 1.49266 11.9177 1.91436 11.9177 2.43418C11.9177 2.95401 11.4826 3.37571 10.9463 3.37571H9.05456C8.51824 3.37571 8.08314 2.95401 8.08314 2.43418ZM4.81099 15.9377C4.16167 15.9377 3.63506 15.4272 3.63506 14.7979C3.63506 14.1686 4.16167 13.6582 4.81099 13.6582C5.46031 13.6582 5.98692 14.1686 5.98692 14.7979C5.98692 15.4272 5.46031 15.9377 4.81099 15.9377ZM9.15682 9.47333C9.15682 9.95103 8.75751 10.338 8.26464 10.338H3.86258C3.36971 10.338 2.97041 9.95103 2.97041 9.47333V6.24737C2.97041 5.76967 3.36971 5.38265 3.86258 5.38265H8.26464C8.75751 5.38265 9.15682 5.76967 9.15682 6.24737V9.47333ZM15.1387 15.9377C14.4894 15.9377 13.9628 15.4272 13.9628 14.7979C13.9628 14.1686 14.4894 13.6582 15.1387 13.6582C15.788 13.6582 16.3146 14.1686 16.3146 14.7979C16.3146 15.4272 15.788 15.9377 15.1387 15.9377ZM17.0304 9.47333C17.0304 9.95103 16.6311 10.338 16.1383 10.338H11.7362C11.2433 10.338 10.844 9.95103 10.844 9.47333V6.24737C10.844 5.76967 11.2433 5.38265 11.7362 5.38265H16.1383C16.6311 5.38265 17.0304 5.76967 17.0304 6.24737V9.47333Z" fill="#4B4B4B"/>
</svg>
