<svg width="337" height="66" viewBox="0 0 337 66" fill="none" xmlns="http://www.w3.org/2000/svg">
<path d="M9.60513 43.3661H12.6411C12.6118 43.9821 12.5605 44.7741 12.4871 45.7421C12.4138 46.7101 12.2745 47.7881 12.0691 48.9761C11.8785 50.1494 11.5851 51.3814 11.1891 52.6721C10.7931 53.9628 10.2505 55.2534 9.56113 56.5441C8.88646 57.8201 8.02113 59.0448 6.96513 60.2181C5.92379 61.3768 4.65513 62.4108 3.15913 63.3201C2.92446 62.9828 2.60179 62.6234 2.19113 62.2421C1.79513 61.8608 1.37713 61.5161 0.937125 61.2081C2.40379 60.3868 3.63579 59.4481 4.63313 58.3921C5.63046 57.3361 6.44446 56.2288 7.07513 55.0701C7.70579 53.8968 8.18979 52.7234 8.52713 51.5501C8.86446 50.3621 9.10646 49.2401 9.25313 48.1841C9.39979 47.1281 9.48779 46.1821 9.51713 45.3461C9.54646 44.5101 9.57579 43.8501 9.60513 43.3661ZM12.5311 43.9601C12.5458 44.2388 12.5751 44.6788 12.6191 45.2801C12.6631 45.8814 12.7511 46.6001 12.8831 47.4361C13.0151 48.2721 13.2131 49.1814 13.4771 50.1641C13.7558 51.1321 14.1225 52.1294 14.5771 53.1561C15.0318 54.1828 15.5965 55.1874 16.2711 56.1701C16.9458 57.1528 17.7598 58.0621 18.7131 58.8981C19.6811 59.7341 20.8105 60.4601 22.1011 61.0761C21.6758 61.3841 21.2798 61.7434 20.9131 62.1541C20.5611 62.5648 20.2751 62.9534 20.0551 63.3201C18.7058 62.6454 17.5251 61.8461 16.5131 60.9221C15.5158 59.9834 14.6578 58.9714 13.9391 57.8861C13.2351 56.7861 12.6485 55.6714 12.1791 54.5421C11.7098 53.4128 11.3285 52.3054 11.0351 51.2201C10.7565 50.1201 10.5438 49.1008 10.3971 48.1621C10.2505 47.2234 10.1478 46.4094 10.0891 45.7201C10.0451 45.0308 10.0085 44.5321 9.97913 44.2241L12.5311 43.9601ZM27.9311 44.9721H42.9351V47.1501H27.9311V44.9721ZM28.1731 48.2061H40.9331V50.3401H28.1731V48.2061ZM25.5551 51.4401H38.2491V53.6401H25.5551V51.4401ZM27.6671 42.7501L30.4391 43.3441C29.9111 45.1188 29.1998 46.7614 28.3051 48.2721C27.4105 49.7828 26.4278 51.0294 25.3571 52.0121C25.1958 51.8508 24.9611 51.6674 24.6531 51.4621C24.3598 51.2421 24.0591 51.0294 23.7511 50.8241C23.4431 50.6041 23.1791 50.4354 22.9591 50.3181C24.0445 49.4821 24.9905 48.3968 25.7971 47.0621C26.6185 45.7128 27.2418 44.2754 27.6671 42.7501ZM33.1011 53.7501L35.6751 54.5861C34.9418 55.9648 34.0471 57.2408 32.9911 58.4141C31.9498 59.5728 30.8058 60.6068 29.5591 61.5161C28.3125 62.4254 27.0145 63.2028 25.6651 63.8481C25.5331 63.6721 25.3498 63.4521 25.1151 63.1881C24.8951 62.9241 24.6531 62.6674 24.3891 62.4181C24.1398 62.1688 23.9198 61.9634 23.7291 61.8021C25.0785 61.2594 26.3471 60.5921 27.5351 59.8001C28.7378 59.0081 29.8085 58.0988 30.7471 57.0721C31.7005 56.0454 32.4851 54.9381 33.1011 53.7501ZM37.3911 51.4401H40.0971C40.0971 52.7601 40.1118 53.9994 40.1411 55.1581C40.1705 56.3021 40.2365 57.3068 40.3391 58.1721C40.4565 59.0228 40.6178 59.6974 40.8231 60.1961C41.0285 60.6801 41.2925 60.9221 41.6151 60.9221C41.7911 60.9074 41.9085 60.6288 41.9671 60.0861C42.0258 59.5434 42.0625 58.8321 42.0771 57.9521C42.3265 58.2454 42.6051 58.5461 42.9131 58.8541C43.2358 59.1474 43.5291 59.3968 43.7931 59.6021C43.7345 60.5114 43.6245 61.2594 43.4631 61.8461C43.3165 62.4328 43.0818 62.8581 42.7591 63.1221C42.4365 63.4008 41.9965 63.5401 41.4391 63.5401C40.5151 63.5401 39.7818 63.2248 39.2391 62.5941C38.7111 61.9781 38.3151 61.1201 38.0511 60.0201C37.7871 58.9054 37.6111 57.6148 37.5231 56.1481C37.4351 54.6814 37.3911 53.1121 37.3911 51.4401ZM25.5991 56.1921L27.4691 54.4541C28.2758 54.8794 29.1118 55.3561 29.9771 55.8841C30.8571 56.3974 31.7225 56.9401 32.5731 57.5121C33.4385 58.0841 34.2378 58.6561 34.9711 59.2281C35.7045 59.7854 36.3205 60.3208 36.8191 60.8341L34.7071 62.8361C34.2525 62.3374 33.6731 61.7948 32.9691 61.2081C32.2798 60.6214 31.5171 60.0348 30.6811 59.4481C29.8598 58.8468 29.0091 58.2674 28.1291 57.7101C27.2491 57.1528 26.4058 56.6468 25.5991 56.1921ZM57.4551 46.4681C57.3085 47.5828 57.1178 48.7708 56.8831 50.0321C56.6485 51.2934 56.3331 52.5694 55.9371 53.8601C55.5118 55.3414 55.0131 56.6174 54.4411 57.6881C53.8691 58.7588 53.2385 59.5874 52.5491 60.1741C51.8745 60.7461 51.1338 61.0321 50.3271 61.0321C49.5205 61.0321 48.7725 60.7608 48.0831 60.2181C47.4085 59.6608 46.8658 58.8981 46.4551 57.9301C46.0591 56.9621 45.8611 55.8621 45.8611 54.6301C45.8611 53.3541 46.1178 52.1514 46.6311 51.0221C47.1445 49.8928 47.8558 48.8954 48.7651 48.0301C49.6891 47.1501 50.7598 46.4608 51.9771 45.9621C53.2091 45.4634 54.5365 45.2141 55.9591 45.2141C57.3231 45.2141 58.5478 45.4341 59.6331 45.8741C60.7331 46.3141 61.6718 46.9228 62.4491 47.7001C63.2265 48.4774 63.8205 49.3868 64.2311 50.4281C64.6418 51.4694 64.8471 52.5914 64.8471 53.7941C64.8471 55.3341 64.5318 56.7128 63.9011 57.9301C63.2705 59.1474 62.3318 60.1521 61.0851 60.9441C59.8531 61.7361 58.3131 62.2788 56.4651 62.5721L54.8151 59.9541C55.2405 59.9101 55.6145 59.8588 55.9371 59.8001C56.2598 59.7414 56.5678 59.6754 56.8611 59.6021C57.5651 59.4261 58.2178 59.1768 58.8191 58.8541C59.4351 58.5168 59.9705 58.1061 60.4251 57.6221C60.8798 57.1234 61.2318 56.5441 61.4811 55.8841C61.7451 55.2241 61.8771 54.4981 61.8771 53.7061C61.8771 52.8408 61.7451 52.0488 61.4811 51.3301C61.2171 50.6114 60.8285 49.9881 60.3151 49.4601C59.8018 48.9174 59.1785 48.5068 58.4451 48.2281C57.7118 47.9348 56.8685 47.7881 55.9151 47.7881C54.7418 47.7881 53.7078 48.0008 52.8131 48.4261C51.9185 48.8368 51.1631 49.3721 50.5471 50.0321C49.9311 50.6921 49.4618 51.4034 49.1391 52.1661C48.8311 52.9288 48.6771 53.6548 48.6771 54.3441C48.6771 55.0774 48.7651 55.6934 48.9411 56.1921C49.1171 56.6761 49.3298 57.0428 49.5791 57.2921C49.8431 57.5268 50.1218 57.6441 50.4151 57.6441C50.7231 57.6441 51.0238 57.4901 51.3171 57.1821C51.6251 56.8594 51.9258 56.3754 52.2191 55.7301C52.5125 55.0848 52.8058 54.2708 53.0991 53.2881C53.4365 52.2321 53.7225 51.1028 53.9571 49.9001C54.1918 48.6974 54.3605 47.5241 54.4631 46.3801L57.4551 46.4681ZM67.6851 48.7781H87.2651V51.5061H67.6851V48.7781ZM78.9931 49.8781C79.4331 51.5501 80.0418 53.1121 80.8191 54.5641C81.5965 56.0161 82.5571 57.2848 83.7011 58.3701C84.8598 59.4554 86.2091 60.3134 87.7491 60.9441C87.5291 61.1348 87.2945 61.3768 87.0451 61.6701C86.8105 61.9634 86.5758 62.2641 86.3411 62.5721C86.1211 62.8948 85.9378 63.1808 85.7911 63.4301C84.1045 62.6381 82.6525 61.6188 81.4351 60.3721C80.2325 59.1254 79.2205 57.6734 78.3991 56.0161C77.5778 54.3441 76.8885 52.5034 76.3311 50.4941L78.9931 49.8781ZM75.9571 42.8601H78.8391C78.8245 43.9748 78.7878 45.1554 78.7291 46.4021C78.6851 47.6341 78.5751 48.8881 78.3991 50.1641C78.2231 51.4401 77.9371 52.7088 77.5411 53.9701C77.1598 55.2168 76.6171 56.4194 75.9131 57.5781C75.2238 58.7221 74.3291 59.7928 73.2291 60.7901C72.1438 61.7874 70.8165 62.6674 69.2471 63.4301C69.0418 63.0781 68.7558 62.6894 68.3891 62.2641C68.0225 61.8388 67.6485 61.4868 67.2671 61.2081C68.7631 60.5334 70.0171 59.7561 71.0291 58.8761C72.0411 57.9814 72.8625 57.0208 73.4931 55.9941C74.1385 54.9528 74.6298 53.8748 74.9671 52.7601C75.3045 51.6308 75.5318 50.4941 75.6491 49.3501C75.7811 48.2061 75.8618 47.0841 75.8911 45.9841C75.9205 44.8841 75.9425 43.8428 75.9571 42.8601ZM105.679 42.7941L107.593 44.9941C106.464 45.2874 105.232 45.5441 103.897 45.7641C102.577 45.9694 101.206 46.1528 99.7831 46.3141C98.3605 46.4608 96.9305 46.5854 95.4931 46.6881C94.0558 46.7761 92.6698 46.8421 91.3351 46.8861C91.2911 46.5488 91.2031 46.1528 91.0711 45.6981C90.9391 45.2288 90.8071 44.8474 90.6751 44.5541C91.9951 44.5101 93.3445 44.4368 94.7231 44.3341C96.1165 44.2314 97.4731 44.1068 98.7931 43.9601C100.128 43.8134 101.382 43.6448 102.555 43.4541C103.728 43.2634 104.77 43.0434 105.679 42.7941ZM90.8951 49.0421H108.275V51.5721H90.8951V49.0421ZM89.3771 54.1681H109.595V56.7641H89.3771V54.1681ZM98.1111 45.9181H100.861V60.3501C100.861 61.1421 100.751 61.7288 100.531 62.1101C100.326 62.5061 99.9518 62.8141 99.4091 63.0341C98.8958 63.2248 98.2285 63.3494 97.4071 63.4081C96.6005 63.4668 95.6325 63.4888 94.5031 63.4741C94.4591 63.2248 94.3711 62.9388 94.2391 62.6161C94.1218 62.3081 93.9898 61.9928 93.8431 61.6701C93.6965 61.3621 93.5571 61.0908 93.4251 60.8561C93.9825 60.8708 94.5325 60.8854 95.0751 60.9001C95.6178 60.9148 96.1018 60.9221 96.5271 60.9221C96.9525 60.9221 97.2531 60.9221 97.4291 60.9221C97.6785 60.9074 97.8545 60.8561 97.9571 60.7681C98.0598 60.6801 98.1111 60.5261 98.1111 60.3061V45.9181ZM113.423 43.6081H117.889V46.0061H113.423V43.6081ZM113.269 48.6461H117.361V51.0221H113.269V48.6461ZM113.247 53.7721H117.361V56.2141H113.247V53.7721ZM112.257 43.6081H114.479V51.6161C114.479 52.4814 114.464 53.4348 114.435 54.4761C114.406 55.5028 114.34 56.5514 114.237 57.6221C114.134 58.6928 113.98 59.7341 113.775 60.7461C113.584 61.7434 113.328 62.6454 113.005 63.4521C112.858 63.3348 112.66 63.2028 112.411 63.0561C112.162 62.9094 111.905 62.7628 111.641 62.6161C111.392 62.4841 111.164 62.3888 110.959 62.3301C111.267 61.5821 111.502 60.7534 111.663 59.8441C111.839 58.9348 111.964 58.0034 112.037 57.0501C112.125 56.0821 112.184 55.1361 112.213 54.2121C112.242 53.2881 112.257 52.4228 112.257 51.6161V43.6081ZM116.415 43.6081H118.747V60.5701C118.747 61.1274 118.688 61.5821 118.571 61.9341C118.468 62.3008 118.256 62.5868 117.933 62.7921C117.61 62.9974 117.229 63.1294 116.789 63.1881C116.349 63.2468 115.799 63.2761 115.139 63.2761C115.124 63.0561 115.08 62.7994 115.007 62.5061C114.948 62.2128 114.875 61.9121 114.787 61.6041C114.699 61.3108 114.611 61.0614 114.523 60.8561C114.846 60.8708 115.161 60.8781 115.469 60.8781C115.777 60.8781 115.99 60.8781 116.107 60.8781C116.312 60.8781 116.415 60.7608 116.415 60.5261V43.6081ZM120.485 43.8281L122.729 42.9041C123.14 43.4908 123.528 44.1361 123.895 44.8401C124.276 45.5294 124.54 46.1454 124.687 46.6881L122.267 47.7221C122.15 47.2088 121.915 46.5854 121.563 45.8521C121.226 45.1188 120.866 44.4441 120.485 43.8281ZM127.525 42.8821L130.297 43.7401C129.901 44.5908 129.49 45.4341 129.065 46.2701C128.64 47.0914 128.251 47.7881 127.899 48.3601L125.611 47.5461C125.846 47.1208 126.08 46.6441 126.315 46.1161C126.564 45.5734 126.792 45.0234 126.997 44.4661C127.217 43.8941 127.393 43.3661 127.525 42.8821ZM122.025 54.2781H124.621C124.548 55.2901 124.438 56.2581 124.291 57.1821C124.144 58.0914 123.902 58.9421 123.565 59.7341C123.242 60.5114 122.78 61.2154 122.179 61.8461C121.578 62.4914 120.8 63.0561 119.847 63.5401C119.7 63.2174 119.473 62.8434 119.165 62.4181C118.857 62.0074 118.564 61.6848 118.285 61.4501C119.077 61.0834 119.708 60.6508 120.177 60.1521C120.646 59.6534 121.006 59.1034 121.255 58.5021C121.504 57.9008 121.68 57.2481 121.783 56.5441C121.9 55.8254 121.981 55.0701 122.025 54.2781ZM125.765 53.9701H128.317V60.1081C128.317 60.4454 128.332 60.6508 128.361 60.7241C128.405 60.7974 128.5 60.8341 128.647 60.8341C128.691 60.8341 128.757 60.8341 128.845 60.8341C128.948 60.8341 129.05 60.8341 129.153 60.8341C129.256 60.8341 129.329 60.8341 129.373 60.8341C129.49 60.8341 129.578 60.7754 129.637 60.6581C129.696 60.5408 129.74 60.2988 129.769 59.9321C129.798 59.5508 129.82 58.9788 129.835 58.2161C129.996 58.3481 130.209 58.4801 130.473 58.6121C130.752 58.7441 131.03 58.8614 131.309 58.9641C131.602 59.0668 131.859 59.1474 132.079 59.2061C132.006 60.2621 131.881 61.0761 131.705 61.6481C131.529 62.2201 131.272 62.6234 130.935 62.8581C130.612 63.0928 130.187 63.2101 129.659 63.2101C129.571 63.2101 129.461 63.2101 129.329 63.2101C129.197 63.2101 129.058 63.2101 128.911 63.2101C128.779 63.2101 128.647 63.2101 128.515 63.2101C128.383 63.2101 128.273 63.2101 128.185 63.2101C127.525 63.2101 127.019 63.1074 126.667 62.9021C126.33 62.7114 126.095 62.3888 125.963 61.9341C125.831 61.4941 125.765 60.8854 125.765 60.1081V53.9701ZM122.509 49.5481V52.4521H127.877V49.5481H122.509ZM119.935 47.2381H130.583V54.7621H119.935V47.2381ZM140.725 46.7101H143.475V59.1401C143.475 59.5654 143.512 59.8808 143.585 60.0861C143.658 60.2914 143.82 60.4234 144.069 60.4821C144.318 60.5408 144.685 60.5701 145.169 60.5701C145.301 60.5701 145.506 60.5701 145.785 60.5701C146.078 60.5701 146.408 60.5701 146.775 60.5701C147.156 60.5701 147.523 60.5701 147.875 60.5701C148.242 60.5701 148.572 60.5701 148.865 60.5701C149.173 60.5701 149.408 60.5701 149.569 60.5701C149.994 60.5701 150.317 60.4968 150.537 60.3501C150.772 60.2034 150.933 59.9248 151.021 59.5141C151.124 59.1034 151.204 58.4948 151.263 57.6881C151.586 57.9081 151.996 58.1208 152.495 58.3261C153.008 58.5168 153.456 58.6561 153.837 58.7441C153.705 59.8588 153.507 60.7388 153.243 61.3841C152.979 62.0294 152.576 62.4841 152.033 62.7481C151.49 63.0268 150.742 63.1661 149.789 63.1661C149.628 63.1661 149.378 63.1661 149.041 63.1661C148.718 63.1661 148.352 63.1661 147.941 63.1661C147.53 63.1661 147.12 63.1661 146.709 63.1661C146.313 63.1661 145.954 63.1661 145.631 63.1661C145.308 63.1661 145.074 63.1661 144.927 63.1661C143.842 63.1661 142.991 63.0488 142.375 62.8141C141.759 62.5794 141.326 62.1688 141.077 61.5821C140.842 60.9954 140.725 60.1814 140.725 59.1401V46.7101ZM148.799 42.8601L150.999 44.9941C149.855 45.4194 148.616 45.8154 147.281 46.1821C145.946 46.5341 144.56 46.8568 143.123 47.1501C141.7 47.4288 140.256 47.6854 138.789 47.9201C137.337 48.1548 135.914 48.3601 134.521 48.5361C134.492 48.3014 134.433 48.0448 134.345 47.7661C134.257 47.4728 134.154 47.1868 134.037 46.9081C133.934 46.6294 133.832 46.3948 133.729 46.2041C135.093 46.0281 136.472 45.8228 137.865 45.5881C139.273 45.3534 140.637 45.0968 141.957 44.8181C143.292 44.5248 144.538 44.2168 145.697 43.8941C146.87 43.5714 147.904 43.2268 148.799 42.8601ZM134.279 50.8901L151.439 48.6021L151.813 51.0881L134.653 53.4421L134.279 50.8901ZM133.553 55.9281L152.803 53.5081L153.155 55.9941L133.905 58.4801L133.553 55.9281ZM174.231 47.8541C174.114 48.0594 173.989 48.3088 173.857 48.6021C173.725 48.8808 173.608 49.1594 173.505 49.4381C173.314 50.0834 173.043 50.8241 172.691 51.6601C172.354 52.4814 171.928 53.3394 171.415 54.2341C170.916 55.1141 170.337 55.9648 169.677 56.7861C168.621 58.0474 167.389 59.1914 165.981 60.2181C164.588 61.2448 162.857 62.1688 160.789 62.9901L158.193 60.6581C159.689 60.2181 160.98 59.7121 162.065 59.1401C163.15 58.5681 164.096 57.9594 164.903 57.3141C165.71 56.6541 166.428 55.9574 167.059 55.2241C167.572 54.6521 168.042 54.0068 168.467 53.2881C168.892 52.5548 169.259 51.8288 169.567 51.1101C169.875 50.3914 170.08 49.7608 170.183 49.2181H162.769L163.781 46.7321C163.986 46.7321 164.302 46.7321 164.727 46.7321C165.167 46.7321 165.658 46.7321 166.201 46.7321C166.758 46.7321 167.301 46.7321 167.829 46.7321C168.372 46.7321 168.841 46.7321 169.237 46.7321C169.648 46.7321 169.926 46.7321 170.073 46.7321C170.41 46.7321 170.748 46.7101 171.085 46.6661C171.437 46.6221 171.738 46.5561 171.987 46.4681L174.231 47.8541ZM167.059 44.3781C166.795 44.7594 166.538 45.1701 166.289 45.6101C166.04 46.0501 165.849 46.3874 165.717 46.6221C165.218 47.5021 164.602 48.4188 163.869 49.3721C163.15 50.3108 162.329 51.2274 161.405 52.1221C160.481 53.0021 159.498 53.8088 158.457 54.5421L155.971 52.7161C156.939 52.1148 157.79 51.4988 158.523 50.8681C159.271 50.2374 159.916 49.6141 160.459 48.9981C161.002 48.3674 161.464 47.7661 161.845 47.1941C162.241 46.6074 162.578 46.0868 162.857 45.6321C163.033 45.3534 163.216 44.9941 163.407 44.5541C163.598 44.0994 163.744 43.6888 163.847 43.3221L167.059 44.3781ZM194.119 44.4661C194.104 44.7741 194.082 45.1114 194.053 45.4781C194.038 45.8301 194.031 46.2261 194.031 46.6661C194.031 47.0474 194.031 47.5094 194.031 48.0521C194.031 48.5948 194.031 49.1374 194.031 49.6801C194.031 50.2081 194.031 50.6554 194.031 51.0221C194.031 52.1954 193.972 53.2221 193.855 54.1021C193.752 54.9821 193.591 55.7521 193.371 56.4121C193.151 57.0721 192.88 57.6588 192.557 58.1721C192.249 58.6708 191.89 59.1474 191.479 59.6021C190.995 60.1301 190.438 60.6068 189.807 61.0321C189.176 61.4428 188.538 61.7874 187.893 62.0661C187.262 62.3594 186.676 62.5941 186.133 62.7701L183.823 60.3501C184.923 60.1008 185.913 59.7561 186.793 59.3161C187.688 58.8614 188.465 58.2821 189.125 57.5781C189.506 57.1528 189.814 56.7274 190.049 56.3021C190.284 55.8768 190.46 55.4074 190.577 54.8941C190.709 54.3661 190.797 53.7721 190.841 53.1121C190.9 52.4521 190.929 51.6968 190.929 50.8461C190.929 50.4648 190.929 50.0101 190.929 49.4821C190.929 48.9541 190.929 48.4334 190.929 47.9201C190.929 47.4068 190.929 46.9888 190.929 46.6661C190.929 46.2261 190.914 45.8301 190.885 45.4781C190.87 45.1114 190.841 44.7741 190.797 44.4661H194.119ZM183.911 44.6421C183.896 44.9061 183.882 45.1701 183.867 45.4341C183.852 45.6834 183.845 45.9841 183.845 46.3361C183.845 46.4974 183.845 46.7614 183.845 47.1281C183.845 47.4948 183.845 47.9274 183.845 48.4261C183.845 48.9101 183.845 49.4234 183.845 49.9661C183.845 50.4941 183.845 51.0074 183.845 51.5061C183.845 52.0048 183.845 52.4594 183.845 52.8701C183.845 53.2661 183.845 53.5668 183.845 53.7721C183.845 54.0508 183.852 54.3734 183.867 54.7401C183.882 55.1068 183.896 55.4221 183.911 55.6861H180.721C180.736 55.4808 180.758 55.1874 180.787 54.8061C180.816 54.4248 180.831 54.0728 180.831 53.7501C180.831 53.5448 180.831 53.2441 180.831 52.8481C180.831 52.4521 180.831 52.0048 180.831 51.5061C180.831 50.9928 180.831 50.4721 180.831 49.9441C180.831 49.4014 180.831 48.8881 180.831 48.4041C180.831 47.9201 180.831 47.4948 180.831 47.1281C180.831 46.7614 180.831 46.4974 180.831 46.3361C180.831 46.1308 180.824 45.8668 180.809 45.5441C180.794 45.2068 180.772 44.9061 180.743 44.6421H183.911ZM202.193 46.6001C202.589 46.6441 203.022 46.6808 203.491 46.7101C203.975 46.7248 204.4 46.7321 204.767 46.7321C205.075 46.7321 205.486 46.7321 205.999 46.7321C206.512 46.7321 207.077 46.7321 207.693 46.7321C208.309 46.7321 208.932 46.7321 209.563 46.7321C210.208 46.7321 210.817 46.7321 211.389 46.7321C211.976 46.7321 212.489 46.7321 212.929 46.7321C213.369 46.7321 213.684 46.7321 213.875 46.7321C214.315 46.7321 214.755 46.7174 215.195 46.6881C215.635 46.6588 216.009 46.6294 216.317 46.6001V49.7901C216.009 49.7754 215.62 49.7608 215.151 49.7461C214.682 49.7168 214.256 49.7021 213.875 49.7021C213.684 49.7021 213.354 49.7021 212.885 49.7021C212.43 49.7021 211.895 49.7021 211.279 49.7021C210.663 49.7021 210.018 49.7021 209.343 49.7021C208.683 49.7021 208.045 49.7021 207.429 49.7021C206.813 49.7021 206.27 49.7021 205.801 49.7021C205.332 49.7021 204.994 49.7021 204.789 49.7021C204.364 49.7021 203.916 49.7094 203.447 49.7241C202.978 49.7388 202.56 49.7608 202.193 49.7901V46.6001ZM200.345 57.3581C200.785 57.3874 201.24 57.4168 201.709 57.4461C202.193 57.4754 202.655 57.4901 203.095 57.4901C203.286 57.4901 203.638 57.4901 204.151 57.4901C204.664 57.4901 205.266 57.4901 205.955 57.4901C206.659 57.4901 207.414 57.4901 208.221 57.4901C209.028 57.4901 209.827 57.4901 210.619 57.4901C211.426 57.4901 212.174 57.4901 212.863 57.4901C213.567 57.4901 214.168 57.4901 214.667 57.4901C215.18 57.4901 215.532 57.4901 215.723 57.4901C216.104 57.4901 216.508 57.4828 216.933 57.4681C217.373 57.4388 217.776 57.4021 218.143 57.3581V60.7241C217.762 60.6801 217.344 60.6508 216.889 60.6361C216.434 60.6068 216.046 60.5921 215.723 60.5921C215.532 60.5921 215.18 60.5921 214.667 60.5921C214.168 60.5921 213.567 60.5921 212.863 60.5921C212.174 60.5921 211.426 60.5921 210.619 60.5921C209.827 60.5921 209.028 60.5921 208.221 60.5921C207.414 60.5921 206.659 60.5921 205.955 60.5921C205.266 60.5921 204.664 60.5921 204.151 60.5921C203.638 60.5921 203.286 60.5921 203.095 60.5921C202.655 60.5921 202.186 60.6068 201.687 60.6361C201.203 60.6508 200.756 60.6801 200.345 60.7241V57.3581ZM231.563 48.4701C231.666 48.7048 231.798 49.0421 231.959 49.4821C232.135 49.9074 232.318 50.3694 232.509 50.8681C232.7 51.3521 232.868 51.8141 233.015 52.2541C233.162 52.6941 233.279 53.0388 233.367 53.2881L230.727 54.2121C230.668 53.9334 230.566 53.5814 230.419 53.1561C230.272 52.7308 230.111 52.2834 229.935 51.8141C229.759 51.3301 229.583 50.8681 229.407 50.4281C229.231 49.9881 229.077 49.6214 228.945 49.3281L231.563 48.4701ZM239.681 50.0761C239.564 50.4281 239.461 50.7288 239.373 50.9781C239.3 51.2274 239.226 51.4621 239.153 51.6821C238.874 52.7968 238.493 53.9114 238.009 55.0261C237.525 56.1261 236.909 57.1601 236.161 58.1281C235.134 59.4481 233.968 60.5701 232.663 61.4941C231.372 62.4034 230.082 63.1001 228.791 63.5841L226.481 61.2301C227.288 61.0101 228.138 60.6874 229.033 60.2621C229.928 59.8221 230.793 59.2941 231.629 58.6781C232.465 58.0621 233.184 57.3801 233.785 56.6321C234.284 56.0014 234.724 55.2828 235.105 54.4761C235.501 53.6548 235.824 52.7821 236.073 51.8581C236.337 50.9194 236.513 49.9954 236.601 49.0861L239.681 50.0761ZM226.459 49.6361C226.606 49.9148 226.767 50.2741 226.943 50.7141C227.134 51.1541 227.324 51.6161 227.515 52.1001C227.706 52.5841 227.889 53.0534 228.065 53.5081C228.256 53.9628 228.402 54.3441 228.505 54.6521L225.821 55.6641C225.733 55.3708 225.601 54.9894 225.425 54.5201C225.264 54.0508 225.08 53.5594 224.875 53.0461C224.67 52.5181 224.472 52.0341 224.281 51.5941C224.105 51.1541 223.951 50.8168 223.819 50.5821L226.459 49.6361ZM262.231 47.8541C262.114 48.0594 261.989 48.3088 261.857 48.6021C261.725 48.8808 261.608 49.1594 261.505 49.4381C261.314 50.0834 261.043 50.8241 260.691 51.6601C260.354 52.4814 259.928 53.3394 259.415 54.2341C258.916 55.1141 258.337 55.9648 257.677 56.7861C256.621 58.0474 255.389 59.1914 253.981 60.2181C252.588 61.2448 250.857 62.1688 248.789 62.9901L246.193 60.6581C247.689 60.2181 248.98 59.7121 250.065 59.1401C251.15 58.5681 252.096 57.9594 252.903 57.3141C253.71 56.6541 254.428 55.9574 255.059 55.2241C255.572 54.6521 256.042 54.0068 256.467 53.2881C256.892 52.5548 257.259 51.8288 257.567 51.1101C257.875 50.3914 258.08 49.7608 258.183 49.2181H250.769L251.781 46.7321C251.986 46.7321 252.302 46.7321 252.727 46.7321C253.167 46.7321 253.658 46.7321 254.201 46.7321C254.758 46.7321 255.301 46.7321 255.829 46.7321C256.372 46.7321 256.841 46.7321 257.237 46.7321C257.648 46.7321 257.926 46.7321 258.073 46.7321C258.41 46.7321 258.748 46.7101 259.085 46.6661C259.437 46.6221 259.738 46.5561 259.987 46.4681L262.231 47.8541ZM255.059 44.3781C254.795 44.7594 254.538 45.1701 254.289 45.6101C254.04 46.0501 253.849 46.3874 253.717 46.6221C253.218 47.5021 252.602 48.4188 251.869 49.3721C251.15 50.3108 250.329 51.2274 249.405 52.1221C248.481 53.0021 247.498 53.8088 246.457 54.5421L243.971 52.7161C244.939 52.1148 245.79 51.4988 246.523 50.8681C247.271 50.2374 247.916 49.6141 248.459 48.9981C249.002 48.3674 249.464 47.7661 249.845 47.1941C250.241 46.6074 250.578 46.0868 250.857 45.6321C251.033 45.3534 251.216 44.9941 251.407 44.5541C251.598 44.0994 251.744 43.6888 251.847 43.3221L255.059 44.3781Z" fill="#4B4B4B"/>
<path d="M267.813 61.5381V53.3781C272.773 48.8448 277.12 44.6314 280.853 40.7381C284.586 36.8448 287.493 33.2181 289.573 29.8581C291.653 26.4448 292.693 23.2981 292.693 20.4181C292.693 18.6048 292.373 17.0847 291.733 15.8581C291.146 14.5781 290.266 13.6181 289.093 12.9781C287.92 12.3381 286.533 12.0181 284.933 12.0181C282.906 12.0181 281.066 12.6048 279.413 13.7781C277.813 14.8981 276.293 16.2314 274.853 17.7781L267.093 10.0981C270.026 6.95142 272.986 4.63142 275.973 3.13808C279.013 1.64475 282.64 0.898085 286.853 0.898085C290.693 0.898085 294.08 1.67142 297.013 3.21808C299.946 4.76475 302.24 6.95142 303.893 9.77808C305.546 12.5514 306.373 15.8314 306.373 19.6181C306.373 23.0314 305.493 26.5248 303.733 30.0981C302.026 33.6181 299.813 37.1114 297.093 40.5781C294.373 43.9914 291.493 47.2448 288.453 50.3381C289.946 50.1248 291.6 49.9381 293.413 49.7781C295.28 49.6181 296.88 49.5381 298.213 49.5381H309.093V61.5381H267.813ZM319.443 50.3061V59.3541H316.203V53.5221H313.971V50.3061H319.443ZM319.443 58.0101C319.859 58.7781 320.451 59.3381 321.219 59.6901C321.987 60.0421 322.939 60.2421 324.075 60.2901C324.859 60.3221 325.787 60.3461 326.859 60.3621C327.947 60.3621 329.091 60.3541 330.291 60.3381C331.491 60.3221 332.659 60.2901 333.795 60.2421C334.947 60.1941 335.979 60.1301 336.891 60.0501C336.779 60.3061 336.651 60.6261 336.507 61.0101C336.363 61.3941 336.235 61.7861 336.123 62.1861C336.011 62.6021 335.923 62.9701 335.859 63.2901C335.043 63.3381 334.123 63.3701 333.099 63.3861C332.075 63.4181 331.019 63.4341 329.931 63.4341C328.843 63.4501 327.795 63.4501 326.787 63.4341C325.779 63.4181 324.875 63.3941 324.075 63.3621C322.683 63.2981 321.507 63.0741 320.547 62.6901C319.587 62.3221 318.755 61.6741 318.051 60.7461C317.635 61.1941 317.195 61.6421 316.731 62.0901C316.267 62.5541 315.755 63.0501 315.195 63.5781L313.587 60.2421C314.051 59.9221 314.539 59.5701 315.051 59.1861C315.579 58.8021 316.075 58.4101 316.539 58.0101H319.443ZM313.659 43.2981L316.419 41.5701C316.819 41.9541 317.227 42.3781 317.643 42.8421C318.059 43.3061 318.443 43.7701 318.795 44.2341C319.163 44.6821 319.443 45.1061 319.635 45.5061L316.659 47.4501C316.499 47.0661 316.251 46.6341 315.915 46.1541C315.595 45.6581 315.235 45.1621 314.835 44.6661C314.435 44.1701 314.043 43.7141 313.659 43.2981ZM320.715 50.6661H335.523V53.1381H320.715V50.6661ZM320.043 54.3621H336.267V56.8821H320.043V54.3621ZM323.715 49.6341H326.979V55.5861H323.715V49.6341ZM329.115 49.6341H332.427V55.5861H329.115V49.6341ZM321.411 44.4501H324.507V43.7781H320.259V41.6421H327.411V46.6101H321.411V44.4501ZM320.571 44.4501H323.403V46.6821C323.403 46.9541 323.443 47.1301 323.523 47.2101C323.603 47.2741 323.771 47.3061 324.027 47.3061C324.091 47.3061 324.179 47.3061 324.291 47.3061C324.419 47.3061 324.555 47.3061 324.699 47.3061C324.859 47.3061 325.003 47.3061 325.131 47.3061C325.275 47.3061 325.379 47.3061 325.443 47.3061C325.667 47.3061 325.811 47.2581 325.875 47.1621C325.955 47.0661 326.019 46.8581 326.067 46.5381C326.323 46.7141 326.683 46.8821 327.147 47.0421C327.627 47.2021 328.059 47.3221 328.443 47.4021C328.299 48.2341 328.019 48.8021 327.603 49.1061C327.203 49.4101 326.603 49.5621 325.803 49.5621C325.675 49.5621 325.507 49.5621 325.299 49.5621C325.107 49.5621 324.899 49.5621 324.675 49.5621C324.467 49.5621 324.259 49.5621 324.051 49.5621C323.859 49.5621 323.699 49.5621 323.571 49.5621C322.787 49.5621 322.179 49.4821 321.747 49.3221C321.315 49.1461 321.011 48.8501 320.835 48.4341C320.659 48.0181 320.571 47.4421 320.571 46.7061V44.4501ZM329.283 44.4501H332.451V43.7781H328.035V41.6421H335.403V46.6101H329.283V44.4501ZM328.467 44.4501H331.299V46.6821C331.299 46.9541 331.339 47.1301 331.419 47.2101C331.499 47.2741 331.667 47.3061 331.923 47.3061C331.987 47.3061 332.075 47.3061 332.187 47.3061C332.315 47.3061 332.451 47.3061 332.595 47.3061C332.755 47.3061 332.899 47.3061 333.027 47.3061C333.171 47.3061 333.275 47.3061 333.339 47.3061C333.563 47.3061 333.707 47.2581 333.771 47.1621C333.851 47.0661 333.915 46.8581 333.963 46.5381C334.219 46.7141 334.579 46.8821 335.043 47.0421C335.523 47.2021 335.955 47.3221 336.339 47.4021C336.195 48.2341 335.915 48.8021 335.499 49.1061C335.099 49.4101 334.499 49.5621 333.699 49.5621C333.571 49.5621 333.403 49.5621 333.195 49.5621C333.003 49.5621 332.795 49.5621 332.571 49.5621C332.363 49.5621 332.155 49.5621 331.947 49.5621C331.755 49.5621 331.595 49.5621 331.467 49.5621C330.683 49.5621 330.075 49.4821 329.643 49.3221C329.211 49.1461 328.907 48.8501 328.731 48.4341C328.555 48.0181 328.467 47.4421 328.467 46.7061V44.4501ZM328.731 57.8661L331.299 56.4501C331.875 56.7061 332.483 56.9941 333.123 57.3141C333.763 57.6341 334.371 57.9541 334.947 58.2741C335.523 58.5941 336.011 58.8821 336.411 59.1381L332.787 60.3861C332.355 60.0341 331.763 59.6261 331.011 59.1621C330.259 58.6821 329.499 58.2501 328.731 57.8661ZM324.627 56.4981L327.675 57.5541C327.051 58.1301 326.275 58.6741 325.347 59.1861C324.419 59.6821 323.531 60.0901 322.683 60.4101C322.491 60.2021 322.243 59.9701 321.939 59.7141C321.635 59.4421 321.323 59.1861 321.003 58.9461C320.683 58.6901 320.403 58.4821 320.163 58.3221C321.011 58.0981 321.843 57.8261 322.659 57.5061C323.475 57.1861 324.131 56.8501 324.627 56.4981Z" fill="url(#paint0_linear_413_1911)"/>
<path d="M3 7.81641H79C80.3807 7.81641 81.5 8.93569 81.5 10.3164V33.3164C81.5 34.6971 80.3807 35.8164 79 35.8164H3C1.61929 35.8164 0.5 34.6971 0.5 33.3164V10.3164L0.512695 10.0605C0.640824 8.80001 1.70566 7.81641 3 7.81641Z" fill="#4B4B4B"/>
<path d="M3 7.81641H79C80.3807 7.81641 81.5 8.93569 81.5 10.3164V33.3164C81.5 34.6971 80.3807 35.8164 79 35.8164H3C1.61929 35.8164 0.5 34.6971 0.5 33.3164V10.3164L0.512695 10.0605C0.640824 8.80001 1.70566 7.81641 3 7.81641Z" stroke="#4B4B4B"/>
<path d="M9.986 21.0364V27.6784H7.88V23.0344H5.792V21.0364H9.986ZM9.986 26.7424C10.358 27.3304 10.88 27.7624 11.552 28.0384C12.224 28.3144 13.028 28.4704 13.964 28.5064C14.492 28.5304 15.116 28.5484 15.836 28.5604C16.568 28.5604 17.336 28.5544 18.14 28.5424C18.944 28.5304 19.73 28.5064 20.498 28.4704C21.278 28.4344 21.968 28.3924 22.568 28.3444C22.496 28.5124 22.412 28.7284 22.316 28.9924C22.22 29.2564 22.13 29.5264 22.046 29.8024C21.974 30.0784 21.92 30.3244 21.884 30.5404C21.344 30.5764 20.726 30.6004 20.03 30.6124C19.334 30.6364 18.62 30.6484 17.888 30.6484C17.156 30.6604 16.448 30.6604 15.764 30.6484C15.08 30.6364 14.468 30.6184 13.928 30.5944C12.824 30.5464 11.882 30.3724 11.102 30.0724C10.322 29.7844 9.632 29.2924 9.032 28.5964C8.636 28.9324 8.228 29.2804 7.808 29.6404C7.4 30.0004 6.95 30.3724 6.458 30.7564L5.396 28.5064C5.816 28.2544 6.254 27.9784 6.71 27.6784C7.166 27.3784 7.604 27.0664 8.024 26.7424H9.986ZM5.81 15.7444L7.412 14.4484C7.784 14.6884 8.162 14.9704 8.546 15.2944C8.93 15.6064 9.29 15.9304 9.626 16.2664C9.962 16.5904 10.232 16.8904 10.436 17.1664L8.726 18.6064C8.546 18.3184 8.294 18.0064 7.97 17.6704C7.658 17.3344 7.31 16.9984 6.926 16.6624C6.542 16.3144 6.17 16.0084 5.81 15.7444ZM11.03 15.4744L12.866 14.7904C13.094 15.1384 13.31 15.5104 13.514 15.9064C13.718 16.3024 13.904 16.6984 14.072 17.0944C14.24 17.4784 14.354 17.8264 14.414 18.1384L12.452 18.9124C12.404 18.6124 12.308 18.2644 12.164 17.8684C12.02 17.4604 11.846 17.0524 11.642 16.6444C11.45 16.2244 11.246 15.8344 11.03 15.4744ZM10.58 19.3624H22.046V21.3424H10.58V19.3624ZM15.188 14.2864H17.312V27.9304H15.188V14.2864ZM14.738 20.2804L16.394 20.8384C16.058 21.6904 15.644 22.5124 15.152 23.3044C14.66 24.0964 14.114 24.8284 13.514 25.5004C12.926 26.1724 12.308 26.7364 11.66 27.1924C11.552 27.0124 11.408 26.8204 11.228 26.6164C11.06 26.4004 10.88 26.1904 10.688 25.9864C10.508 25.7824 10.334 25.6144 10.166 25.4824C10.79 25.1224 11.39 24.6664 11.966 24.1144C12.554 23.5624 13.082 22.9564 13.55 22.2964C14.03 21.6364 14.426 20.9644 14.738 20.2804ZM17.816 20.3524C18.128 21.0124 18.524 21.6664 19.004 22.3144C19.484 22.9504 20.018 23.5324 20.606 24.0604C21.194 24.5884 21.8 25.0324 22.424 25.3924C22.256 25.5244 22.076 25.6924 21.884 25.8964C21.704 26.0884 21.524 26.2924 21.344 26.5084C21.176 26.7244 21.038 26.9284 20.93 27.1204C20.294 26.6764 19.682 26.1244 19.094 25.4644C18.506 24.8044 17.972 24.0784 17.492 23.2864C17.024 22.4944 16.616 21.6844 16.268 20.8564L17.816 20.3524ZM19.796 14.6824L21.92 15.4384C21.704 15.8464 21.476 16.2604 21.236 16.6804C20.996 17.1004 20.762 17.5024 20.534 17.8864C20.306 18.2584 20.09 18.5884 19.886 18.8764L18.194 18.1924C18.386 17.8804 18.584 17.5204 18.788 17.1124C18.992 16.7044 19.178 16.2904 19.346 15.8704C19.526 15.4384 19.676 15.0424 19.796 14.6824ZM25.574 21.7024C25.85 21.6424 26.168 21.5704 26.528 21.4864C26.888 21.3904 27.206 21.3004 27.482 21.2164C27.782 21.1204 28.184 20.9944 28.688 20.8384C29.192 20.6824 29.744 20.5264 30.344 20.3704C30.956 20.2144 31.568 20.0824 32.18 19.9744C32.804 19.8664 33.392 19.8124 33.944 19.8124C34.892 19.8124 35.72 19.9924 36.428 20.3524C37.148 20.7004 37.706 21.2044 38.102 21.8644C38.498 22.5244 38.696 23.3104 38.696 24.2224C38.696 25.0384 38.516 25.7824 38.156 26.4544C37.808 27.1264 37.274 27.7144 36.554 28.2184C35.834 28.7224 34.934 29.1304 33.854 29.4424C32.786 29.7664 31.538 29.9704 30.11 30.0544L29.156 27.8404C30.188 27.8164 31.136 27.7264 32 27.5704C32.876 27.4144 33.632 27.1924 34.268 26.9044C34.916 26.6044 35.414 26.2264 35.762 25.7704C36.122 25.3144 36.302 24.7864 36.302 24.1864C36.302 23.7304 36.194 23.3344 35.978 22.9984C35.774 22.6504 35.48 22.3804 35.096 22.1884C34.712 21.9964 34.256 21.9004 33.728 21.9004C33.308 21.9004 32.84 21.9544 32.324 22.0624C31.808 22.1704 31.274 22.3084 30.722 22.4764C30.182 22.6444 29.648 22.8244 29.12 23.0164C28.592 23.2084 28.1 23.3944 27.644 23.5744C27.188 23.7544 26.81 23.9104 26.51 24.0424L25.574 21.7024ZM49.532 14.9524C49.46 15.1924 49.388 15.4864 49.316 15.8344C49.244 16.1824 49.19 16.4524 49.154 16.6444C49.07 17.0524 48.962 17.5504 48.83 18.1384C48.71 18.7264 48.572 19.3504 48.416 20.0104C48.272 20.6704 48.122 21.3004 47.966 21.9004C47.81 22.5364 47.618 23.2264 47.39 23.9704C47.162 24.7024 46.916 25.4524 46.652 26.2204C46.4 26.9764 46.142 27.7024 45.878 28.3984C45.614 29.0824 45.356 29.6944 45.104 30.2344L42.602 29.3884C42.866 28.9324 43.148 28.3804 43.448 27.7324C43.748 27.0724 44.036 26.3644 44.312 25.6084C44.6 24.8524 44.864 24.1024 45.104 23.3584C45.344 22.6144 45.548 21.9244 45.716 21.2884C45.836 20.8684 45.95 20.4364 46.058 19.9924C46.166 19.5484 46.262 19.1164 46.346 18.6964C46.43 18.2764 46.502 17.8864 46.562 17.5264C46.634 17.1544 46.688 16.8304 46.724 16.5544C46.76 16.2184 46.784 15.8824 46.796 15.5464C46.808 15.2104 46.802 14.9404 46.778 14.7364L49.532 14.9524ZM44.942 17.6344C45.674 17.6344 46.436 17.5984 47.228 17.5264C48.02 17.4544 48.818 17.3524 49.622 17.2204C50.426 17.0884 51.224 16.9324 52.016 16.7524V19.0024C51.272 19.1704 50.48 19.3144 49.64 19.4344C48.8 19.5544 47.972 19.6504 47.156 19.7224C46.34 19.7824 45.59 19.8124 44.906 19.8124C44.474 19.8124 44.084 19.8064 43.736 19.7944C43.388 19.7704 43.052 19.7524 42.728 19.7404L42.674 17.4904C43.142 17.5384 43.544 17.5744 43.88 17.5984C44.216 17.6224 44.57 17.6344 44.942 17.6344ZM50.594 20.3884C51.098 20.3404 51.656 20.2984 52.268 20.2624C52.88 20.2264 53.474 20.2084 54.05 20.2084C54.566 20.2084 55.088 20.2204 55.616 20.2444C56.156 20.2684 56.69 20.3104 57.218 20.3704L57.164 22.5304C56.72 22.4704 56.228 22.4224 55.688 22.3864C55.16 22.3384 54.62 22.3144 54.068 22.3144C53.456 22.3144 52.862 22.3324 52.286 22.3684C51.722 22.3924 51.158 22.4404 50.594 22.5124V20.3884ZM51.566 24.9244C51.494 25.1764 51.434 25.4404 51.386 25.7164C51.338 25.9804 51.314 26.2144 51.314 26.4184C51.314 26.6104 51.356 26.7904 51.44 26.9584C51.524 27.1264 51.656 27.2764 51.836 27.4084C52.016 27.5284 52.262 27.6244 52.574 27.6964C52.898 27.7684 53.3 27.8044 53.78 27.8044C54.392 27.8044 55.004 27.7744 55.616 27.7144C56.24 27.6424 56.876 27.5464 57.524 27.4264L57.434 29.7304C56.93 29.7904 56.372 29.8444 55.76 29.8924C55.148 29.9524 54.482 29.9824 53.762 29.9824C52.25 29.9824 51.092 29.7364 50.288 29.2444C49.496 28.7404 49.1 28.0324 49.1 27.1204C49.1 26.7124 49.136 26.2984 49.208 25.8784C49.28 25.4584 49.352 25.0684 49.424 24.7084L51.566 24.9244ZM65.012 14.8264C65.444 14.9584 65.984 15.0964 66.632 15.2404C67.28 15.3844 67.958 15.5284 68.666 15.6724C69.374 15.8044 70.04 15.9184 70.664 16.0144C71.3 16.1104 71.816 16.1824 72.212 16.2304L71.672 18.4264C71.312 18.3784 70.874 18.3124 70.358 18.2284C69.854 18.1324 69.314 18.0304 68.738 17.9224C68.174 17.8144 67.616 17.7064 67.064 17.5984C66.512 17.4784 66.008 17.3644 65.552 17.2564C65.096 17.1484 64.724 17.0584 64.436 16.9864L65.012 14.8264ZM65.12 18.4444C65.06 18.6844 64.994 18.9964 64.922 19.3804C64.862 19.7524 64.802 20.1424 64.742 20.5504C64.682 20.9584 64.622 21.3484 64.562 21.7204C64.514 22.0924 64.472 22.4044 64.436 22.6564C65.252 22.0684 66.104 21.6364 66.992 21.3604C67.892 21.0844 68.81 20.9464 69.746 20.9464C70.802 20.9464 71.702 21.1384 72.446 21.5224C73.19 21.9064 73.754 22.4104 74.138 23.0344C74.534 23.6584 74.732 24.3364 74.732 25.0684C74.732 25.8844 74.558 26.6404 74.21 27.3364C73.862 28.0324 73.292 28.6264 72.5 29.1184C71.708 29.6104 70.67 29.9584 69.386 30.1624C68.102 30.3664 66.524 30.3904 64.652 30.2344L63.968 27.8764C65.768 28.1164 67.28 28.1524 68.504 27.9844C69.728 27.8044 70.652 27.4564 71.276 26.9404C71.912 26.4124 72.23 25.7704 72.23 25.0144C72.23 24.6184 72.116 24.2704 71.888 23.9704C71.66 23.6584 71.342 23.4184 70.934 23.2504C70.526 23.0704 70.064 22.9804 69.548 22.9804C68.54 22.9804 67.592 23.1664 66.704 23.5384C65.828 23.8984 65.108 24.4204 64.544 25.1044C64.388 25.2964 64.256 25.4764 64.148 25.6444C64.052 25.8004 63.962 25.9684 63.878 26.1484L61.808 25.6264C61.88 25.2784 61.952 24.8704 62.024 24.4024C62.096 23.9224 62.168 23.4124 62.24 22.8724C62.312 22.3204 62.378 21.7684 62.438 21.2164C62.498 20.6644 62.552 20.1184 62.6 19.5784C62.648 19.0384 62.684 18.5464 62.708 18.1024L65.12 18.4444Z" fill="white"/>
<circle cx="166.121" cy="11.2393" r="1.5" fill="#4B4B4B"/>
<circle cx="183.29" cy="11.2393" r="1.5" fill="#4B4B4B"/>
<path d="M93.7112 17.8684C93.5072 17.6404 93.2492 17.3764 92.9372 17.0764C92.6252 16.7644 92.3072 16.4644 91.9832 16.1764C91.6592 15.8764 91.3772 15.6424 91.1372 15.4744L92.7932 14.3224C93.0212 14.4784 93.2972 14.7004 93.6212 14.9884C93.9452 15.2644 94.2692 15.5524 94.5932 15.8524C94.9292 16.1404 95.1992 16.3984 95.4032 16.6264L93.7112 17.8684ZM88.8152 15.9424C88.8752 16.0504 88.9472 16.1944 89.0312 16.3744C89.1152 16.5544 89.2052 16.7344 89.3012 16.9144C89.3972 17.0824 89.4752 17.2264 89.5352 17.3464C89.9072 18.0424 90.2852 18.8104 90.6692 19.6504C91.0532 20.4784 91.4072 21.2704 91.7312 22.0264C91.9352 22.5184 92.1692 23.1064 92.4332 23.7904C92.7092 24.4744 92.9792 25.1884 93.2432 25.9324C93.5072 26.6764 93.7532 27.3904 93.9812 28.0744C94.2212 28.7584 94.4132 29.3524 94.5572 29.8564L92.0912 30.5044C91.9112 29.7484 91.6892 28.9264 91.4252 28.0384C91.1612 27.1504 90.8792 26.2744 90.5792 25.4104C90.2792 24.5344 89.9792 23.7364 89.6792 23.0164C89.4392 22.4524 89.1992 21.9004 88.9592 21.3604C88.7312 20.8204 88.4972 20.3044 88.2572 19.8124C88.0292 19.3084 87.7892 18.8464 87.5372 18.4264C87.4172 18.1984 87.2552 17.9344 87.0512 17.6344C86.8592 17.3344 86.6672 17.0704 86.4752 16.8424L88.8152 15.9424ZM84.9272 21.2164C85.2872 21.1324 85.6352 21.0304 85.9712 20.9104C86.3192 20.7904 86.5652 20.7004 86.7092 20.6404C87.3692 20.3764 88.0352 20.0944 88.7072 19.7944C89.3912 19.4944 90.0752 19.1944 90.7592 18.8944C91.4552 18.5824 92.1332 18.3064 92.7932 18.0664C93.4652 17.8144 94.1192 17.6164 94.7552 17.4724C95.4032 17.3164 96.0092 17.2384 96.5732 17.2384C97.5092 17.2384 98.3072 17.4064 98.9672 17.7424C99.6392 18.0784 100.149 18.5344 100.497 19.1104C100.857 19.6864 101.037 20.3224 101.037 21.0184C101.037 21.8584 100.857 22.5904 100.497 23.2144C100.137 23.8264 99.6212 24.3004 98.9492 24.6364C98.2772 24.9724 97.4792 25.1404 96.5552 25.1404C96.0752 25.1404 95.5772 25.0864 95.0612 24.9784C94.5572 24.8704 94.1312 24.7564 93.7832 24.6364L93.8372 22.3684C94.2452 22.5484 94.6652 22.6984 95.0972 22.8184C95.5292 22.9264 95.9432 22.9804 96.3392 22.9804C96.7832 22.9804 97.1792 22.9024 97.5272 22.7464C97.8872 22.5784 98.1692 22.3444 98.3732 22.0444C98.5772 21.7444 98.6792 21.3784 98.6792 20.9464C98.6792 20.6464 98.5892 20.3704 98.4092 20.1184C98.2412 19.8664 97.9952 19.6684 97.6712 19.5244C97.3592 19.3684 96.9752 19.2904 96.5192 19.2904C95.9312 19.2904 95.2652 19.4044 94.5212 19.6324C93.7892 19.8484 93.0152 20.1304 92.1992 20.4784C91.3832 20.8264 90.5852 21.1984 89.8052 21.5944C89.0252 21.9784 88.3052 22.3444 87.6452 22.6924C86.9852 23.0284 86.4332 23.2984 85.9892 23.5024L84.9272 21.2164ZM104.817 21.7024C105.093 21.6424 105.411 21.5704 105.771 21.4864C106.131 21.3904 106.449 21.3004 106.725 21.2164C107.025 21.1204 107.427 20.9944 107.931 20.8384C108.435 20.6824 108.987 20.5264 109.587 20.3704C110.199 20.2144 110.811 20.0824 111.423 19.9744C112.047 19.8664 112.635 19.8124 113.187 19.8124C114.135 19.8124 114.963 19.9924 115.671 20.3524C116.391 20.7004 116.949 21.2044 117.345 21.8644C117.741 22.5244 117.939 23.3104 117.939 24.2224C117.939 25.0384 117.759 25.7824 117.399 26.4544C117.051 27.1264 116.517 27.7144 115.797 28.2184C115.077 28.7224 114.177 29.1304 113.097 29.4424C112.029 29.7664 110.781 29.9704 109.353 30.0544L108.399 27.8404C109.431 27.8164 110.379 27.7264 111.243 27.5704C112.119 27.4144 112.875 27.1924 113.511 26.9044C114.159 26.6044 114.657 26.2264 115.005 25.7704C115.365 25.3144 115.545 24.7864 115.545 24.1864C115.545 23.7304 115.437 23.3344 115.221 22.9984C115.017 22.6504 114.723 22.3804 114.339 22.1884C113.955 21.9964 113.499 21.9004 112.971 21.9004C112.551 21.9004 112.083 21.9544 111.567 22.0624C111.051 22.1704 110.517 22.3084 109.965 22.4764C109.425 22.6444 108.891 22.8244 108.363 23.0164C107.835 23.2084 107.343 23.3944 106.887 23.5744C106.431 23.7544 106.053 23.9104 105.753 24.0424L104.817 21.7024ZM126.777 18.4804C127.293 18.5284 127.809 18.5644 128.325 18.5884C128.853 18.6124 129.387 18.6244 129.927 18.6244C131.031 18.6244 132.129 18.5764 133.221 18.4804C134.313 18.3844 135.327 18.2464 136.263 18.0664V20.2804C135.315 20.4244 134.295 20.5324 133.203 20.6044C132.111 20.6764 131.019 20.7184 129.927 20.7304C129.399 20.7304 128.877 20.7244 128.361 20.7124C127.845 20.6884 127.323 20.6584 126.795 20.6224L126.777 18.4804ZM133.617 15.4384C133.593 15.6064 133.569 15.7924 133.545 15.9964C133.533 16.2004 133.521 16.3984 133.509 16.5904C133.497 16.7824 133.485 17.0464 133.473 17.3824C133.461 17.7064 133.449 18.0724 133.437 18.4804C133.437 18.8764 133.437 19.2904 133.437 19.7224C133.437 20.5504 133.449 21.3184 133.473 22.0264C133.509 22.7344 133.545 23.3944 133.581 24.0064C133.629 24.6064 133.665 25.1644 133.689 25.6804C133.713 26.1844 133.725 26.6524 133.725 27.0844C133.725 27.5524 133.659 27.9904 133.527 28.3984C133.407 28.7944 133.209 29.1364 132.933 29.4244C132.657 29.7244 132.291 29.9524 131.835 30.1084C131.391 30.2764 130.845 30.3604 130.197 30.3604C128.949 30.3604 127.965 30.1084 127.245 29.6044C126.525 29.1004 126.165 28.3744 126.165 27.4264C126.165 26.8144 126.327 26.2744 126.651 25.8064C126.987 25.3384 127.449 24.9784 128.037 24.7264C128.637 24.4624 129.345 24.3304 130.161 24.3304C131.013 24.3304 131.787 24.4264 132.483 24.6184C133.179 24.7984 133.809 25.0384 134.373 25.3384C134.949 25.6384 135.465 25.9624 135.921 26.3104C136.377 26.6584 136.779 26.9944 137.127 27.3184L135.921 29.2084C135.225 28.5604 134.547 28.0024 133.887 27.5344C133.239 27.0664 132.597 26.7064 131.961 26.4544C131.325 26.2024 130.665 26.0764 129.981 26.0764C129.477 26.0764 129.063 26.1784 128.739 26.3824C128.427 26.5744 128.271 26.8384 128.271 27.1744C128.271 27.5464 128.433 27.8164 128.757 27.9844C129.081 28.1524 129.477 28.2364 129.945 28.2364C130.317 28.2364 130.611 28.1704 130.827 28.0384C131.043 27.9064 131.199 27.7204 131.295 27.4804C131.391 27.2404 131.439 26.9464 131.439 26.5984C131.439 26.2864 131.427 25.8784 131.403 25.3744C131.379 24.8584 131.349 24.2944 131.313 23.6824C131.277 23.0584 131.247 22.4104 131.223 21.7384C131.199 21.0544 131.187 20.3884 131.187 19.7404C131.187 19.0564 131.187 18.4324 131.187 17.8684C131.187 17.3044 131.181 16.8904 131.169 16.6264C131.169 16.4824 131.157 16.2964 131.133 16.0684C131.109 15.8284 131.079 15.6184 131.043 15.4384H133.617ZM124.833 15.6184C124.797 15.7384 124.749 15.9064 124.689 16.1224C124.629 16.3384 124.569 16.5544 124.509 16.7704C124.461 16.9744 124.425 17.1304 124.401 17.2384C124.341 17.4784 124.275 17.8144 124.203 18.2464C124.143 18.6784 124.071 19.1644 123.987 19.7044C123.903 20.2324 123.831 20.7724 123.771 21.3244C123.711 21.8764 123.657 22.4044 123.609 22.9084C123.573 23.4124 123.555 23.8444 123.555 24.2044C123.555 24.3724 123.561 24.5644 123.573 24.7804C123.585 24.9964 123.603 25.1944 123.627 25.3744C123.711 25.1584 123.795 24.9484 123.879 24.7444C123.975 24.5404 124.065 24.3364 124.149 24.1324C124.245 23.9284 124.335 23.7304 124.419 23.5384L125.535 24.4024C125.379 24.8944 125.211 25.4104 125.031 25.9504C124.851 26.4904 124.689 27.0064 124.545 27.4984C124.413 27.9784 124.311 28.3804 124.239 28.7044C124.215 28.8244 124.191 28.9684 124.167 29.1364C124.143 29.3044 124.137 29.4364 124.149 29.5324C124.149 29.6284 124.149 29.7424 124.149 29.8744C124.149 30.0184 124.155 30.1564 124.167 30.2884L122.151 30.4324C121.959 29.8084 121.791 28.9984 121.647 28.0024C121.503 27.0064 121.431 25.9024 121.431 24.6904C121.431 24.0064 121.461 23.2984 121.521 22.5664C121.581 21.8344 121.653 21.1264 121.737 20.4424C121.821 19.7464 121.899 19.1164 121.971 18.5524C122.055 17.9884 122.121 17.5324 122.169 17.1844C122.205 16.9324 122.241 16.6444 122.277 16.3204C122.313 15.9964 122.337 15.6964 122.349 15.4204L124.833 15.6184ZM135.147 15.7804C135.147 16.0204 135.231 16.2244 135.399 16.3924C135.567 16.5604 135.777 16.6444 136.029 16.6444C136.269 16.6444 136.473 16.5604 136.641 16.3924C136.821 16.2244 136.911 16.0204 136.911 15.7804C136.911 15.5284 136.821 15.3184 136.641 15.1504C136.473 14.9824 136.269 14.8984 136.029 14.8984C135.777 14.8984 135.567 14.9824 135.399 15.1504C135.231 15.3184 135.147 15.5284 135.147 15.7804ZM134.085 15.7804C134.085 15.2404 134.271 14.7844 134.643 14.4124C135.015 14.0284 135.477 13.8364 136.029 13.8364C136.569 13.8364 137.025 14.0284 137.397 14.4124C137.781 14.7844 137.973 15.2404 137.973 15.7804C137.973 16.3204 137.781 16.7764 137.397 17.1484C137.025 17.5204 136.569 17.7064 136.029 17.7064C135.477 17.7064 135.015 17.5204 134.643 17.1484C134.271 16.7764 134.085 16.3204 134.085 15.7804ZM144.741 14.8624C144.681 15.0784 144.615 15.3484 144.543 15.6724C144.471 15.9964 144.399 16.3384 144.327 16.6984C144.255 17.0464 144.189 17.3884 144.129 17.7244C144.081 18.0604 144.045 18.3544 144.021 18.6064C144.237 18.2464 144.495 17.8984 144.795 17.5624C145.095 17.2144 145.431 16.9024 145.803 16.6264C146.187 16.3384 146.601 16.1104 147.045 15.9424C147.501 15.7744 147.981 15.6904 148.485 15.6904C149.325 15.6904 150.081 15.9484 150.753 16.4644C151.425 16.9804 151.953 17.7184 152.337 18.6784C152.733 19.6384 152.931 20.7784 152.931 22.0984C152.931 23.3704 152.745 24.4864 152.373 25.4464C152.001 26.3944 151.467 27.2044 150.771 27.8764C150.075 28.5484 149.241 29.0944 148.269 29.5144C147.309 29.9464 146.235 30.2704 145.047 30.4864L143.679 28.3984C144.675 28.2424 145.587 28.0324 146.415 27.7684C147.255 27.4924 147.975 27.1204 148.575 26.6524C149.187 26.1844 149.655 25.5844 149.979 24.8524C150.315 24.1084 150.483 23.1964 150.483 22.1164C150.483 21.1924 150.387 20.4124 150.195 19.7764C150.003 19.1284 149.721 18.6364 149.349 18.3004C148.989 17.9644 148.557 17.7964 148.053 17.7964C147.525 17.7964 147.021 17.9704 146.541 18.3184C146.061 18.6664 145.629 19.1224 145.245 19.6864C144.873 20.2384 144.573 20.8384 144.345 21.4864C144.129 22.1344 144.009 22.7584 143.985 23.3584C143.973 23.6104 143.967 23.8864 143.967 24.1864C143.979 24.4864 144.015 24.8464 144.075 25.2664L141.861 25.4104C141.813 25.0624 141.759 24.6304 141.699 24.1144C141.651 23.5864 141.627 23.0164 141.627 22.4044C141.627 21.9844 141.639 21.5344 141.663 21.0544C141.699 20.5744 141.735 20.0884 141.771 19.5964C141.819 19.0924 141.873 18.5884 141.933 18.0844C142.005 17.5804 142.071 17.1004 142.131 16.6444C142.179 16.2964 142.215 15.9544 142.239 15.6184C142.263 15.2824 142.275 14.9944 142.275 14.7544L144.741 14.8624ZM160.167 16.2304C160.827 16.3024 161.571 16.3564 162.399 16.3924C163.227 16.4284 164.115 16.4464 165.063 16.4464C165.651 16.4464 166.257 16.4344 166.881 16.4104C167.517 16.3864 168.129 16.3564 168.717 16.3204C169.305 16.2844 169.827 16.2424 170.283 16.1944V18.5884C169.863 18.6244 169.353 18.6604 168.753 18.6964C168.165 18.7324 167.547 18.7624 166.899 18.7864C166.263 18.7984 165.657 18.8044 165.081 18.8044C164.145 18.8044 163.275 18.7864 162.471 18.7504C161.667 18.7144 160.899 18.6664 160.167 18.6064V16.2304ZM161.679 23.8624C161.595 24.1744 161.523 24.4804 161.463 24.7804C161.403 25.0804 161.373 25.3804 161.373 25.6804C161.373 26.2564 161.661 26.7304 162.237 27.1024C162.825 27.4744 163.767 27.6604 165.063 27.6604C165.879 27.6604 166.665 27.6304 167.421 27.5704C168.177 27.5104 168.891 27.4264 169.563 27.3184C170.247 27.2104 170.853 27.0844 171.381 26.9404L171.399 29.4784C170.871 29.5984 170.283 29.7004 169.635 29.7844C168.987 29.8804 168.285 29.9524 167.529 30.0004C166.785 30.0604 165.993 30.0904 165.153 30.0904C163.785 30.0904 162.639 29.9404 161.715 29.6404C160.791 29.3404 160.101 28.9084 159.645 28.3444C159.189 27.7684 158.961 27.0664 158.961 26.2384C158.961 25.7104 159.003 25.2304 159.087 24.7984C159.171 24.3664 159.249 23.9824 159.321 23.6464L161.679 23.8624ZM178.167 16.2304C178.827 16.3024 179.571 16.3564 180.399 16.3924C181.227 16.4284 182.115 16.4464 183.063 16.4464C183.651 16.4464 184.257 16.4344 184.881 16.4104C185.517 16.3864 186.129 16.3564 186.717 16.3204C187.305 16.2844 187.827 16.2424 188.283 16.1944V18.5884C187.863 18.6244 187.353 18.6604 186.753 18.6964C186.165 18.7324 185.547 18.7624 184.899 18.7864C184.263 18.7984 183.657 18.8044 183.081 18.8044C182.145 18.8044 181.275 18.7864 180.471 18.7504C179.667 18.7144 178.899 18.6664 178.167 18.6064V16.2304ZM179.679 23.8624C179.595 24.1744 179.523 24.4804 179.463 24.7804C179.403 25.0804 179.373 25.3804 179.373 25.6804C179.373 26.2564 179.661 26.7304 180.237 27.1024C180.825 27.4744 181.767 27.6604 183.063 27.6604C183.879 27.6604 184.665 27.6304 185.421 27.5704C186.177 27.5104 186.891 27.4264 187.563 27.3184C188.247 27.2104 188.853 27.0844 189.381 26.9404L189.399 29.4784C188.871 29.5984 188.283 29.7004 187.635 29.7844C186.987 29.8804 186.285 29.9524 185.529 30.0004C184.785 30.0604 183.993 30.0904 183.153 30.0904C181.785 30.0904 180.639 29.9404 179.715 29.6404C178.791 29.3404 178.101 28.9084 177.645 28.3444C177.189 27.7684 176.961 27.0664 176.961 26.2384C176.961 25.7104 177.003 25.2304 177.087 24.7984C177.171 24.3664 177.249 23.9824 177.321 23.6464L179.679 23.8624ZM200.433 15.2224C200.385 15.4504 200.331 15.7024 200.271 15.9784C200.211 16.2424 200.157 16.4884 200.109 16.7164C200.061 16.9804 200.001 17.2804 199.929 17.6164C199.857 17.9404 199.785 18.2704 199.713 18.6064C199.653 18.9304 199.587 19.2484 199.515 19.5604C199.395 20.0764 199.245 20.6764 199.065 21.3604C198.885 22.0444 198.675 22.7824 198.435 23.5744C198.195 24.3544 197.925 25.1404 197.625 25.9324C197.325 26.7244 197.007 27.4984 196.671 28.2544C196.335 28.9984 195.975 29.6704 195.591 30.2704L193.251 29.3344C193.671 28.7704 194.061 28.1404 194.421 27.4444C194.793 26.7364 195.129 26.0164 195.429 25.2844C195.729 24.5404 195.993 23.8084 196.221 23.0884C196.461 22.3564 196.665 21.6784 196.833 21.0544C197.013 20.4304 197.151 19.8964 197.247 19.4524C197.415 18.6364 197.547 17.8504 197.643 17.0944C197.739 16.3384 197.775 15.6244 197.751 14.9524L200.433 15.2224ZM206.625 17.0404C206.913 17.4364 207.207 17.9224 207.507 18.4984C207.819 19.0624 208.125 19.6624 208.425 20.2984C208.725 20.9344 208.995 21.5464 209.235 22.1344C209.475 22.7224 209.661 23.2324 209.793 23.6644L207.507 24.7084C207.399 24.2044 207.237 23.6464 207.021 23.0344C206.817 22.4224 206.577 21.8044 206.301 21.1804C206.025 20.5444 205.731 19.9444 205.419 19.3804C205.119 18.8164 204.807 18.3424 204.483 17.9584L206.625 17.0404ZM193.125 18.9124C193.449 18.9364 193.767 18.9484 194.079 18.9484C194.403 18.9364 194.727 18.9244 195.051 18.9124C195.351 18.9004 195.711 18.8824 196.131 18.8584C196.551 18.8224 196.995 18.7864 197.463 18.7504C197.943 18.7144 198.423 18.6784 198.903 18.6424C199.383 18.5944 199.827 18.5584 200.235 18.5344C200.643 18.5104 200.979 18.4984 201.243 18.4984C201.891 18.4984 202.455 18.6064 202.935 18.8224C203.415 19.0264 203.793 19.3804 204.069 19.8844C204.357 20.3884 204.501 21.0724 204.501 21.9364C204.501 22.6444 204.471 23.4124 204.411 24.2404C204.351 25.0684 204.243 25.8604 204.087 26.6164C203.943 27.3724 203.739 28.0144 203.475 28.5424C203.187 29.1664 202.791 29.5984 202.287 29.8384C201.795 30.0784 201.207 30.1984 200.523 30.1984C200.187 30.1984 199.821 30.1684 199.425 30.1084C199.029 30.0604 198.675 30.0064 198.363 29.9464L197.985 27.5704C198.213 27.6304 198.465 27.6904 198.741 27.7504C199.029 27.8104 199.299 27.8584 199.551 27.8944C199.815 27.9304 200.025 27.9484 200.181 27.9484C200.481 27.9484 200.745 27.8944 200.973 27.7864C201.201 27.6664 201.387 27.4624 201.531 27.1744C201.699 26.8264 201.837 26.3764 201.945 25.8244C202.053 25.2724 202.131 24.6784 202.179 24.0424C202.239 23.3944 202.269 22.7764 202.269 22.1884C202.269 21.7084 202.197 21.3544 202.053 21.1264C201.921 20.8984 201.723 20.7484 201.459 20.6764C201.207 20.5924 200.895 20.5504 200.523 20.5504C200.247 20.5504 199.875 20.5744 199.407 20.6224C198.939 20.6584 198.435 20.7064 197.895 20.7664C197.367 20.8144 196.875 20.8684 196.419 20.9284C195.963 20.9884 195.609 21.0304 195.357 21.0544C195.093 21.1024 194.757 21.1564 194.349 21.2164C193.953 21.2644 193.617 21.3124 193.341 21.3604L193.125 18.9124ZM206.301 14.5384C206.457 14.7544 206.619 15.0124 206.787 15.3124C206.967 15.6124 207.141 15.9124 207.309 16.2124C207.477 16.5124 207.621 16.7764 207.741 17.0044L206.283 17.6344C206.163 17.3824 206.025 17.1064 205.869 16.8064C205.713 16.5064 205.551 16.2064 205.383 15.9064C205.215 15.6064 205.047 15.3484 204.879 15.1324L206.301 14.5384ZM208.443 13.7284C208.599 13.9564 208.767 14.2204 208.947 14.5204C209.127 14.8204 209.301 15.1204 209.469 15.4204C209.649 15.7204 209.787 15.9724 209.883 16.1764L208.461 16.7884C208.269 16.4164 208.041 15.9964 207.777 15.5284C207.513 15.0484 207.255 14.6404 207.003 14.3044L208.443 13.7284Z" fill="#464646"/>
<path d="M219.657 13.9984H221.961V17.2924H219.657V13.9984ZM213.213 15.6364H228.603V19.9024H226.281V17.6344H215.409V19.9024H213.213V15.6364ZM219.009 18.0664L221.295 18.5344C220.947 19.2664 220.575 20.0284 220.179 20.8204C219.795 21.6004 219.405 22.3804 219.009 23.1604C218.613 23.9404 218.223 24.6844 217.839 25.3924C217.467 26.0884 217.119 26.7184 216.795 27.2824L214.509 26.6704C214.857 26.1184 215.223 25.4944 215.607 24.7984C216.003 24.0904 216.399 23.3524 216.795 22.5844C217.203 21.8044 217.593 21.0304 217.965 20.2624C218.349 19.4824 218.697 18.7504 219.009 18.0664ZM223.563 22.1884L225.993 22.4944C225.609 23.8864 225.075 25.0684 224.391 26.0404C223.719 27.0004 222.903 27.8044 221.943 28.4524C220.995 29.1004 219.897 29.6164 218.649 30.0004C217.401 30.3964 216.003 30.7084 214.455 30.9364C214.395 30.7564 214.293 30.5404 214.149 30.2884C214.005 30.0484 213.849 29.8084 213.681 29.5684C213.525 29.3284 213.375 29.1304 213.231 28.9744C215.199 28.7824 216.891 28.4464 218.307 27.9664C219.735 27.4864 220.887 26.7844 221.763 25.8604C222.639 24.9364 223.239 23.7124 223.563 22.1884ZM212.835 20.7304H228.909V22.7644H212.835V20.7304ZM215.859 26.2924L217.425 24.7804C218.301 25.0204 219.231 25.3084 220.215 25.6444C221.211 25.9804 222.195 26.3464 223.167 26.7424C224.151 27.1264 225.075 27.5224 225.939 27.9304C226.815 28.3384 227.565 28.7404 228.189 29.1364L226.461 30.9004C225.897 30.5164 225.201 30.1084 224.373 29.6764C223.545 29.2564 222.645 28.8424 221.673 28.4344C220.701 28.0144 219.717 27.6184 218.721 27.2464C217.725 26.8744 216.771 26.5564 215.859 26.2924ZM235.227 19.1824H237.477V27.7684C237.477 28.2124 237.531 28.4944 237.639 28.6144C237.759 28.7224 238.035 28.7764 238.467 28.7764C238.551 28.7764 238.707 28.7764 238.935 28.7764C239.163 28.7764 239.409 28.7764 239.673 28.7764C239.937 28.7764 240.183 28.7764 240.411 28.7764C240.639 28.7764 240.813 28.7764 240.933 28.7764C241.221 28.7764 241.437 28.6924 241.581 28.5244C241.737 28.3444 241.851 28.0084 241.923 27.5164C241.995 27.0244 242.049 26.3104 242.085 25.3744C242.337 25.5664 242.661 25.7524 243.057 25.9324C243.453 26.1004 243.801 26.2264 244.101 26.3104C244.029 27.4264 243.897 28.3144 243.705 28.9744C243.513 29.6224 243.213 30.0784 242.805 30.3424C242.397 30.6184 241.827 30.7564 241.095 30.7564C240.999 30.7564 240.849 30.7564 240.645 30.7564C240.453 30.7564 240.231 30.7564 239.979 30.7564C239.739 30.7564 239.499 30.7564 239.259 30.7564C239.019 30.7564 238.797 30.7564 238.593 30.7564C238.401 30.7564 238.263 30.7564 238.179 30.7564C237.411 30.7564 236.811 30.6604 236.379 30.4684C235.959 30.2884 235.659 29.9824 235.479 29.5504C235.311 29.1184 235.227 28.5244 235.227 27.7684V19.1824ZM235.281 15.7624L236.685 14.0884C237.405 14.3404 238.137 14.6464 238.881 15.0064C239.625 15.3664 240.333 15.7384 241.005 16.1224C241.677 16.5064 242.253 16.8784 242.733 17.2384L241.311 19.1284C240.843 18.7444 240.273 18.3484 239.601 17.9404C238.941 17.5204 238.233 17.1184 237.477 16.7344C236.733 16.3504 236.001 16.0264 235.281 15.7624ZM231.987 20.4604L234.093 20.8924C234.009 21.7204 233.895 22.5664 233.751 23.4304C233.607 24.2944 233.409 25.1164 233.157 25.8964C232.905 26.6644 232.575 27.3424 232.167 27.9304L230.151 26.7604C230.511 26.2444 230.811 25.6504 231.051 24.9784C231.291 24.3064 231.489 23.5864 231.645 22.8184C231.801 22.0504 231.915 21.2644 231.987 20.4604ZM242.337 20.7304L244.317 19.7584C244.833 20.4184 245.313 21.1324 245.757 21.9004C246.201 22.6684 246.579 23.4304 246.891 24.1864C247.215 24.9424 247.449 25.6324 247.593 26.2564L245.415 27.3364C245.295 26.7244 245.085 26.0344 244.785 25.2664C244.485 24.4864 244.125 23.7004 243.705 22.9084C243.285 22.1164 242.829 21.3904 242.337 20.7304ZM251.265 24.6904L250.779 18.5344L250.689 15.8524H253.677L253.587 18.5344L253.101 24.6904H251.265ZM252.183 29.4784C251.727 29.4784 251.349 29.3284 251.049 29.0284C250.749 28.7284 250.599 28.3504 250.599 27.8944C250.599 27.4264 250.749 27.0424 251.049 26.7424C251.349 26.4424 251.727 26.2924 252.183 26.2924C252.639 26.2924 253.017 26.4424 253.317 26.7424C253.617 27.0424 253.767 27.4264 253.767 27.8944C253.767 28.3504 253.617 28.7284 253.317 29.0284C253.017 29.3284 252.639 29.4784 252.183 29.4784Z" fill="#01A8DA"/>
<g style="mix-blend-mode:multiply">
<rect x="68.1748" y="58.1411" width="191.72" height="7.39697" fill="#FFF65C"/>
</g>
<defs>
<linearGradient id="paint0_linear_413_1911" x1="0.328125" y1="29.5381" x2="337.328" y2="29.5381" gradientUnits="userSpaceOnUse">
<stop stop-color="#00617E"/>
<stop offset="1" stop-color="#00B0E4"/>
</linearGradient>
</defs>
</svg>
