<svg width="30" height="31" viewBox="0 0 30 31" fill="none" xmlns="http://www.w3.org/2000/svg">
<path d="M23.8706 24.1716H23.5279C23.2462 24.1716 23.0102 23.9474 23.0102 23.6634C23.0102 23.3794 23.2386 23.1552 23.5279 23.1552H23.8706C26.6802 23.1552 28.9721 20.913 28.9721 18.1477V6.43621C28.9721 3.67837 26.6878 1.42874 23.8706 1.42874H6.12944C3.3198 1.42874 1.02792 3.67089 1.02792 6.43621V18.1477C1.02792 20.9056 3.31218 23.1552 6.12944 23.1552H19.6523C19.934 23.1552 20.17 23.3794 20.17 23.6634C20.17 23.9474 19.9416 24.1716 19.6523 24.1716H6.12944C2.74873 24.1716 0 21.4736 0 18.1552V6.44369C0 3.1253 2.74873 0.427246 6.12944 0.427246H23.8706C27.2513 0.427246 30 3.1253 30 6.44369V18.1552C30 21.4736 27.2513 24.1716 23.8706 24.1716Z" fill="#4B4B4B"/>
<path d="M9.83718 22.2956H7.20266C4.33971 22.2956 2.00977 20.0011 2.00977 17.1835V7.40019C2.00977 4.58256 4.33971 2.28809 7.20266 2.28809H9.83718C10.7813 2.28809 11.558 3.04294 11.558 3.97717V20.6065C11.558 21.5332 10.789 22.2956 9.83718 22.2956ZM7.20266 3.30453C4.90317 3.30453 3.03768 5.14309 3.03768 7.40019V17.1835C3.03768 19.4406 4.90317 21.2791 7.20266 21.2791H9.83718C10.2179 21.2791 10.5225 20.9727 10.5225 20.6065V3.98465C10.5225 3.61096 10.2103 3.312 9.83718 3.312H7.20266V3.30453Z" fill="#4B4B4B"/>
<path d="M6.77662 9.27606C5.4822 9.27606 4.42383 8.2372 4.42383 6.96664C4.42383 5.69609 5.4822 4.65723 6.77662 4.65723C8.07104 4.65723 9.12941 5.69609 9.12941 6.96664C9.12941 8.2372 8.07104 9.27606 6.77662 9.27606ZM6.77662 5.6662C6.04566 5.6662 5.45175 6.24916 5.45175 6.96664C5.45175 7.68413 6.04566 8.26709 6.77662 8.26709C7.50758 8.26709 8.10149 7.68413 8.10149 6.96664C8.10149 6.24916 7.50758 5.6662 6.77662 5.6662Z" fill="#4B4B4B"/>
<path d="M6.77662 14.9562C5.4822 14.9562 4.42383 13.9174 4.42383 12.6468C4.42383 11.3763 5.4822 10.3374 6.77662 10.3374C8.07104 10.3374 9.12941 11.3763 9.12941 12.6468C9.12941 13.9174 8.07104 14.9562 6.77662 14.9562ZM6.77662 11.3464C6.04566 11.3464 5.45175 11.9293 5.45175 12.6468C5.45175 13.3643 6.04566 13.9473 6.77662 13.9473C7.50758 13.9473 8.10149 13.3643 8.10149 12.6468C8.10149 11.9293 7.50758 11.3464 6.77662 11.3464Z" fill="#4B4B4B"/>
<path d="M7.18815 16.9222H6.38105C6.09932 16.9222 5.86328 16.698 5.86328 16.414C5.86328 16.13 6.09171 15.9058 6.38105 15.9058H7.18815C7.46988 15.9058 7.70592 16.13 7.70592 16.414C7.70592 16.698 7.47749 16.9222 7.18815 16.9222Z" fill="#4B4B4B"/>
<path d="M9.54069 16.9222H8.73359C8.45186 16.9222 8.21582 16.698 8.21582 16.414C8.21582 16.13 8.44425 15.9058 8.73359 15.9058H9.54069C9.82242 15.9058 10.0585 16.13 10.0585 16.414C10.0585 16.698 9.83003 16.9222 9.54069 16.9222Z" fill="#4B4B4B"/>
<path d="M4.83464 16.9222H4.02753C3.74581 16.9222 3.50977 16.698 3.50977 16.414C3.50977 16.13 3.73819 15.9058 4.02753 15.9058H4.83464C5.11636 15.9058 5.35241 16.13 5.35241 16.414C5.35241 16.698 5.12398 16.9222 4.83464 16.9222Z" fill="#4B4B4B"/>
<path d="M7.18815 18.7381H6.38105C6.09932 18.7381 5.86328 18.5139 5.86328 18.2299C5.86328 17.9459 6.09171 17.7217 6.38105 17.7217H7.18815C7.46988 17.7217 7.70592 17.9459 7.70592 18.2299C7.70592 18.5139 7.47749 18.7381 7.18815 18.7381Z" fill="#4B4B4B"/>
<path d="M9.54069 18.7381H8.73359C8.45186 18.7381 8.21582 18.5139 8.21582 18.2299C8.21582 17.9459 8.44425 17.7217 8.73359 17.7217H9.54069C9.82242 17.7217 10.0585 17.9459 10.0585 18.2299C10.0585 18.5139 9.83003 18.7381 9.54069 18.7381Z" fill="#4B4B4B"/>
<path d="M4.83464 18.7381H4.02753C3.74581 18.7381 3.50977 18.5139 3.50977 18.2299C3.50977 17.9459 3.73819 17.7217 4.02753 17.7217H4.83464C5.11636 17.7217 5.35241 17.9459 5.35241 18.2299C5.35241 18.5139 5.12398 18.7381 4.83464 18.7381Z" fill="#4B4B4B"/>
<path d="M21.5181 20.315C19.8505 20.315 18.4952 18.9847 18.4952 17.3479V10.0011L17.1323 9.34341C15.9673 8.78287 15.2363 7.6319 15.2363 6.36135V5.56165C15.2363 4.63489 16.0054 3.87256 16.9571 3.87256H26.079C27.0231 3.87256 27.7998 4.62742 27.7998 5.56165V6.36135C27.7998 7.63938 27.0764 8.78287 25.9038 9.34341L24.5409 10.0011V17.3479C24.5409 18.9847 23.1856 20.315 21.5181 20.315ZM16.9571 4.88153C16.5764 4.88153 16.2719 5.18795 16.2719 5.55417V6.35387C16.2719 7.24326 16.7744 8.04296 17.5891 8.4316L19.2414 9.2313C19.4165 9.31352 19.5307 9.49289 19.5307 9.68721V17.3479C19.5307 18.4241 20.4216 19.306 21.5257 19.306C22.6297 19.306 23.5206 18.4316 23.5206 17.3479V9.68721C23.5206 9.49289 23.6348 9.32099 23.8099 9.2313L25.4622 8.4316C26.2769 8.03549 26.7795 7.24326 26.7795 6.35387V5.55417C26.7795 5.18048 26.4673 4.88153 26.0942 4.88153H16.9724H16.9571Z" fill="#4B4B4B"/>
<path d="M21.518 10.1956H19.0129C18.7312 10.1956 18.4951 9.97143 18.4951 9.68742C18.4951 9.40341 18.7235 9.1792 19.0129 9.1792H21.518C21.7997 9.1792 22.0357 9.40341 22.0357 9.68742C22.0357 9.97143 21.8073 10.1956 21.518 10.1956Z" fill="#4B4B4B"/>
<path d="M23.2767 6.86215H15.7463C15.4646 6.86215 15.2285 6.63793 15.2285 6.35392C15.2285 6.06992 15.4569 5.8457 15.7463 5.8457H23.2767C23.5585 5.8457 23.7945 6.06992 23.7945 6.35392C23.7945 6.63793 23.5661 6.86215 23.2767 6.86215Z" fill="#4B4B4B"/>
<path d="M27.2822 6.86215H25.2492C24.9675 6.86215 24.7314 6.63793 24.7314 6.35392C24.7314 6.06992 24.9599 5.8457 25.2492 5.8457H27.2822C27.5639 5.8457 27.8 6.06992 27.8 6.35392C27.8 6.63793 27.5715 6.86215 27.2822 6.86215Z" fill="#4B4B4B"/>
<path d="M20.1017 22.0791C20.0484 22.0791 19.9951 22.0716 19.9418 22.0567C17.8403 21.384 16.4316 19.4782 16.4316 17.3108V11.3915C16.4316 11.115 16.6601 10.8833 16.9494 10.8833C17.2387 10.8833 17.4672 11.1075 17.4672 11.3915V17.3108C17.4672 19.0373 18.5941 20.5619 20.2692 21.1C20.5357 21.1897 20.688 21.4737 20.5966 21.7353C20.5281 21.9521 20.3225 22.0866 20.1093 22.0866L20.1017 22.0791Z" fill="#4B4B4B"/>
<path d="M23.2535 21.967C23.0479 21.967 22.8576 21.8474 22.7738 21.6531C22.6672 21.3915 22.789 21.1 23.0555 20.9954C24.586 20.3751 25.5682 18.9326 25.5682 17.3108V11.3915C25.5682 11.115 25.7966 10.8833 26.086 10.8833C26.3753 10.8833 26.6037 11.1075 26.6037 11.3915V17.3108C26.6037 19.3437 25.3702 21.1524 23.4515 21.9296C23.3906 21.9521 23.322 21.967 23.2535 21.967Z" fill="#4B4B4B"/>
<path d="M12.0532 22.2959H8.72577C8.44405 22.2959 8.20801 22.0717 8.20801 21.7877C8.20801 21.5037 8.43643 21.2795 8.72577 21.2795H12.0532C12.4339 21.2795 12.7385 20.973 12.7385 20.6068V3.98499C12.7385 3.61129 12.4263 3.31234 12.0532 3.31234H9.83745C9.55572 3.31234 9.31968 3.08813 9.31968 2.80412C9.31968 2.52011 9.54811 2.2959 9.83745 2.2959H12.0532C12.9973 2.2959 13.774 3.05076 13.774 3.98499V20.6143C13.774 21.541 13.005 22.3034 12.0532 22.3034V22.2959Z" fill="#4B4B4B"/>
<path d="M23.7489 30.427H6.63972C5.36053 30.427 4.31738 29.4031 4.31738 28.1475C4.31738 26.8919 5.36053 25.868 6.63972 25.868H19.6296C20.391 25.868 21.0077 25.2626 21.0077 24.5152V19.7992C21.0077 19.5227 21.2362 19.291 21.5255 19.291C21.8148 19.291 22.0433 19.5152 22.0433 19.7992V24.5152C22.0433 25.8157 20.9621 26.877 19.6372 26.877H6.63972C5.9316 26.877 5.35292 27.445 5.35292 28.14C5.35292 28.8351 5.9316 29.4031 6.63972 29.4031H23.7489C25.0128 29.4031 26.0407 28.3942 26.0407 27.1535V22.9831C26.0407 22.7066 26.2692 22.4749 26.5585 22.4749C26.8478 22.4749 27.0763 22.6991 27.0763 22.9831V27.1535C27.0763 28.9547 25.5839 30.4121 23.7565 30.4121L23.7489 30.427Z" fill="#4B4B4B"/>
</svg>
