<svg width="30" height="31" viewBox="0 0 30 31" fill="none" xmlns="http://www.w3.org/2000/svg">
<path d="M29.4847 29.3517H26.2569V3.10543C26.256 2.39539 25.9787 1.71467 25.4858 1.21259C24.9928 0.710513 24.3244 0.42808 23.6273 0.427246H6.58701C5.88986 0.42808 5.22149 0.710513 4.72853 1.21259C4.23557 1.71467 3.95826 2.39539 3.95745 3.10543V29.3517H0.517168C0.379211 29.354 0.247687 29.4115 0.150946 29.5117C0.0542057 29.6119 -4.82884e-06 29.7468 3.22615e-10 29.8873C4.82949e-06 30.0278 0.0542246 30.1627 0.150972 30.2629C0.24772 30.3631 0.379248 30.4206 0.517205 30.4229C5.87889 30.4322 27.2496 30.4237 29.4848 30.4229C29.6224 30.4201 29.7534 30.3624 29.8497 30.2622C29.9461 30.1621 30 30.0275 30 29.8873C30 29.7471 29.946 29.6125 29.8497 29.5124C29.7534 29.4122 29.6224 29.3545 29.4847 29.3517ZM10.7132 29.3517V21.3145C10.7134 21.0304 10.8243 20.7581 11.0215 20.5573C11.2187 20.3564 11.4861 20.2435 11.765 20.2432H14.4752V29.3517H10.7132ZM15.527 29.3517V20.2432H18.2372C18.5161 20.2435 18.7834 20.3565 18.9806 20.5573C19.1778 20.7582 19.2887 21.0305 19.289 21.3145V29.3517H15.527ZM20.3409 29.3517V21.3145C20.3403 20.7464 20.1184 20.2018 19.7241 19.8001C19.3297 19.3985 18.795 19.1725 18.2372 19.1719H11.765C11.2073 19.1726 10.6726 19.3985 10.2782 19.8002C9.88381 20.2019 9.66197 20.7464 9.66133 21.3145V29.3517H5.00927V3.10543C5.00973 2.6794 5.1761 2.27094 5.47188 1.96969C5.76767 1.66843 6.16871 1.49899 6.58701 1.49852H23.6273C24.0456 1.49899 24.4466 1.66843 24.7424 1.96969C25.0382 2.27094 25.2046 2.6794 25.205 3.10543V29.3517H20.3409Z" fill="#4B4B4B"/>
<path d="M10.2053 2.68604H7.39851C7.11963 2.68632 6.85226 2.79928 6.65506 3.00012C6.45786 3.20096 6.34696 3.47328 6.34668 3.75731V6.61596C6.34696 6.89999 6.45786 7.17231 6.65506 7.37315C6.85226 7.57399 7.11963 7.68695 7.39851 7.68723H10.2053C10.4841 7.68695 10.7515 7.57399 10.9487 7.37315C11.1459 7.17231 11.2568 6.89999 11.2571 6.61596V3.75731C11.2568 3.47328 11.1459 3.20096 10.9487 3.00012C10.7515 2.79928 10.4841 2.68632 10.2053 2.68604ZM7.39851 6.61596V3.75731H10.2053L10.206 6.61596H7.39851Z" fill="#4B4B4B"/>
<path d="M16.4048 2.68604H13.5977C13.3188 2.68632 13.0515 2.79928 12.8543 3.00012C12.6571 3.20096 12.5462 3.47328 12.5459 3.75731V6.61596C12.5462 6.89999 12.6571 7.17231 12.8543 7.37315C13.0515 7.57399 13.3188 7.68695 13.5977 7.68723H16.4048C16.6836 7.6869 16.951 7.57393 17.1482 7.3731C17.3454 7.17227 17.4563 6.89998 17.4566 6.61596V3.75731C17.4563 3.47329 17.3454 3.201 17.1482 3.00016C16.951 2.79933 16.6836 2.68636 16.4048 2.68604ZM13.5977 6.61596V3.75731H16.4048L16.4053 6.61596H13.5977Z" fill="#4B4B4B"/>
<path d="M22.6037 2.68604H19.7969C19.5181 2.68636 19.2507 2.79933 19.0535 3.00016C18.8564 3.201 18.7454 3.47329 18.7451 3.75731V6.61596C18.7454 6.89998 18.8564 7.17227 19.0535 7.3731C19.2507 7.57394 19.5181 7.68691 19.7969 7.68723H22.6037C22.8826 7.68691 23.1499 7.57394 23.3471 7.3731C23.5443 7.17227 23.6552 6.89998 23.6555 6.61596V3.75731C23.6552 3.47329 23.5443 3.201 23.3471 3.00016C23.1499 2.79933 22.8826 2.68636 22.6037 2.68604ZM19.7969 6.61596V3.75731H22.6037L22.6042 6.61596H19.7969Z" fill="#4B4B4B"/>
<path d="M10.2053 11.332H7.39851C7.11963 11.3323 6.85226 11.4453 6.65506 11.6461C6.45786 11.847 6.34696 12.1193 6.34668 12.4033V15.262C6.34696 15.546 6.45786 15.8183 6.65506 16.0191C6.85226 16.22 7.11963 16.3329 7.39851 16.3332H10.2053C10.4841 16.3329 10.7515 16.22 10.9487 16.0191C11.1459 15.8183 11.2568 15.546 11.2571 15.262V12.4033C11.2568 12.1193 11.1459 11.847 10.9487 11.6461C10.7515 11.4453 10.4841 11.3323 10.2053 11.332ZM7.39851 15.262V12.4033H10.2053L10.206 15.262H7.39851Z" fill="#4B4B4B"/>
<path d="M16.4048 11.332H13.5977C13.3188 11.3323 13.0515 11.4453 12.8543 11.6461C12.6571 11.847 12.5462 12.1193 12.5459 12.4033V15.262C12.5462 15.546 12.6571 15.8183 12.8543 16.0191C13.0515 16.22 13.3188 16.3329 13.5977 16.3332H16.4048C16.6836 16.3329 16.951 16.2199 17.1482 16.0191C17.3454 15.8183 17.4563 15.546 17.4566 15.262V12.4033C17.4563 12.1193 17.3454 11.847 17.1482 11.6462C16.951 11.4453 16.6836 11.3324 16.4048 11.332ZM13.5977 15.262V12.4033H16.4048L16.4053 15.262H13.5977Z" fill="#4B4B4B"/>
<path d="M22.6037 11.332H19.7969C19.5181 11.3324 19.2507 11.4453 19.0535 11.6462C18.8564 11.847 18.7454 12.1193 18.7451 12.4033V15.262C18.7454 15.546 18.8564 15.8183 19.0535 16.0191C19.2507 16.2199 19.5181 16.3329 19.7969 16.3332H22.6037C22.8826 16.3329 23.1499 16.2199 23.3471 16.0191C23.5443 15.8183 23.6552 15.546 23.6555 15.262V12.4033C23.6552 12.1193 23.5443 11.847 23.3471 11.6462C23.1499 11.4453 22.8826 11.3324 22.6037 11.332ZM19.7969 15.262V12.4033H22.6037L22.6042 15.262H19.7969Z" fill="#4B4B4B"/>
</svg>
