<svg width="30" height="34" viewBox="0 0 30 34" fill="none" xmlns="http://www.w3.org/2000/svg">
<path d="M18.2712 21.7395C19.9721 23.7494 18.7054 23.9531 19.7009 25.1294L26.3917 33.0348C27.1191 33.8942 28.4089 34.0042 29.2726 33.2806C30.1363 32.5569 30.2469 31.2735 29.5195 30.4142L22.8287 22.5088C21.832 21.3311 21.4164 22.5406 19.7183 20.5344C19.5037 20.7437 19.2793 20.9464 19.0456 21.1423C18.7935 21.3536 18.5349 21.5525 18.271 21.7395H18.2712ZM19.3528 20.1024L19.3524 20.102C21.3239 18.1547 22.4431 15.6339 22.6669 13.0364C22.9158 10.147 22.0569 7.16308 20.0312 4.76954C19.2736 3.87451 18.4067 3.12536 17.466 2.52531C15.902 1.53397 14.1359 0.95407 12.3332 0.80033C9.43604 0.5533 6.44414 1.40582 4.04398 3.41672C1.64382 5.42782 0.290232 8.21608 0.0417513 11.0986C-0.206527 13.9812 0.650297 16.9581 2.67136 19.3462C4.69242 21.7343 7.49497 23.081 10.3921 23.3281C13.2892 23.5751 16.2811 22.7226 18.6813 20.7117C18.9152 20.5158 19.139 20.3123 19.3528 20.1024ZM14.5138 6.12176C14.8947 6.32547 15.3696 6.18342 15.5746 5.80441C15.7793 5.4254 15.6365 4.9529 15.2556 4.74919C13.7728 3.96095 12.0904 3.64279 10.4423 3.81507C8.83701 3.98271 7.26634 4.61117 5.94515 5.71817C5.61304 5.99643 5.57051 6.49009 5.85018 6.82054C6.12984 7.15099 6.626 7.1933 6.95811 6.91504C8.03608 6.01175 9.30947 5.49996 10.6051 5.36455C11.945 5.22451 13.3111 5.48243 14.5138 6.12176ZM1.85281 11.261C2.06058 8.85058 3.19242 6.5187 5.19951 4.83704C7.2066 3.15538 9.70862 2.4425 12.1313 2.64903C14.5539 2.85576 16.8976 3.98191 18.5877 5.97891C20.2779 7.9759 20.9944 10.4654 20.7868 12.8758C20.579 15.2863 19.4472 17.6182 17.4401 19.2998C15.433 20.9815 12.931 21.6944 10.5083 21.4878C8.0857 21.2811 5.74203 20.155 4.05188 18.158C2.36172 16.161 1.64523 13.6715 1.85281 11.261Z" fill="#4B4B4B"/>
</svg>
