<svg width="196" height="25" viewBox="0 0 196 25" fill="none" xmlns="http://www.w3.org/2000/svg">
<g clip-path="url(#clip0_294_55)">
<path d="M15.7804 12.782L10.7417 0.382784H4.69161L0 24.6172H7.13407L9.00943 14.9307L12.0521 22.3119H15.6843L21.6617 14.7141L19.7682 24.6172H26.9033L29.0393 13.4189L24.3445 1.86245L15.7793 12.782H15.7804ZM45.1529 0.382784L38.3798 8.92949L34.9153 0.382784H26.7549L33.0794 15.9526L31.4017 24.6172H38.8465L40.5125 16.0148L52.9085 0.382784H45.1529Z" fill="url(#paint0_linear_294_55)"/>
<path d="M90.4435 9.60499L89.3841 10.2773L89.3371 10.4413C89.9523 11.0589 90.3538 11.6594 90.7842 12.4046H90.9658L92.0861 11.6958L92.1363 11.5146C91.7208 10.7877 91.1986 10.1518 90.6283 9.58784L90.4435 9.60606V9.60499ZM86.5604 17.384C87.6038 16.1842 88.6792 14.8031 89.7963 13.1852C89.9405 12.9846 90.0163 12.8581 90.0356 12.7488C90.0548 12.6394 89.9982 12.5493 89.8935 12.4217L88.9804 11.3313L87.1179 11.4224H81.9948L79.2885 11.3677L79.107 11.4771L78.6734 13.9486L78.7748 14.0944L81.4822 14.0397H85.7904C83.4611 17.8204 79.3398 20.5642 74.8351 22.5092L76.6805 24.1626C76.7767 24.2355 76.8397 24.2902 76.9475 24.2902C77.0383 24.2902 77.1707 24.2537 77.3683 24.1626C79.9752 22.9263 82.203 21.5817 84.3785 19.6003C85.5191 20.8365 86.7238 22.3269 87.6412 23.9074L87.8366 23.9256L90.3239 21.9259L90.3773 21.7265C89.1748 20.0184 88.0278 18.8186 86.5604 17.3829V17.384ZM92.3274 8.45986L91.2862 9.13214L91.2392 9.29619C91.8543 9.91379 92.2505 10.4413 92.6809 11.1865H92.8625L93.9251 10.496L93.9753 10.3137C93.5599 9.58677 93.0825 9.00562 92.5122 8.44163L92.3274 8.45986ZM64.6776 16.6388L64.8442 16.6206L67.1136 14.4214L67.1457 14.2392C66.1813 13.2398 64.9018 12.2759 63.9108 11.7312L63.7228 11.7677L61.6189 13.7491L61.6082 13.9132C62.72 14.6948 63.7762 15.5848 64.6776 16.6399V16.6388ZM58.8336 11.1501L56.3335 10.1325L56.1786 10.1872C55.2164 12.0593 54.1773 13.7491 53.0548 15.2942C52.2068 14.6584 51.2959 14.0762 50.2898 13.5133L50.0837 13.5497L48.0599 15.3854L48.0311 15.5494C49.1952 16.2399 50.1926 16.9487 51.0759 17.6939C48.9047 20.057 46.4216 21.9291 43.5723 23.3102L45.3825 24.8552C45.4936 24.9464 45.5918 25.0011 45.6826 25.0011C45.7552 25.0011 45.8524 24.9646 45.9517 24.9099C48.6323 23.456 50.9498 21.6021 52.9672 19.4941C53.6625 20.2758 54.2979 21.0939 54.9013 21.9838H55.0647L57.41 19.9659L57.4271 19.7665C56.7489 18.7854 55.9672 17.8761 55.1 17.0398C56.499 15.2588 57.7422 13.332 58.8603 11.297L58.8315 11.1511L58.8336 11.1501ZM75.3958 15.603C75.4118 15.5119 75.4129 15.4025 75.384 15.2578L74.8895 12.4046C70.4372 16.7299 65.2404 19.9294 60.4473 21.6557L60.379 21.8369L61.5772 24.2902L61.7524 24.3266C66.915 22.1457 71.3086 19.492 75.1576 15.93C75.3071 15.8025 75.3733 15.7306 75.3958 15.603ZM186.32 14.4943L184.456 16.2388L185.522 10.1679L185.402 10.0221H182.723L182.555 10.1497L181.18 17.9834L179.863 24.9625H183.013L184.142 18.0198L184.356 16.8018C185.661 17.6199 186.693 18.5463 187.71 19.655L187.895 19.6367L190.037 17.4376L190.088 17.2553C188.856 16.019 187.859 15.3103 186.502 14.474L186.319 14.4922L186.32 14.4943ZM189.468 10.2773L188.409 10.9496L188.362 11.1136C188.977 11.7312 189.378 12.3317 189.809 13.0769H189.99L191.111 12.3681L191.161 12.1858C190.745 11.4589 190.223 10.823 189.653 10.2591L189.469 10.2773H189.468ZM176.336 9.93202C172.361 13.8038 168.598 16.0566 163.98 18.1292L165.621 19.819C165.777 19.9648 165.872 20.0367 165.981 20.0367C166.09 20.0367 166.207 19.982 166.386 19.8908C168.142 18.9634 169.736 18.037 171.283 17.0559L170.919 19.1274L169.836 24.7802H172.968L173.88 19.0727L174.617 14.8739C175.845 13.9647 177.149 12.9289 178.519 11.7291L178.539 11.5114L176.554 9.92988H176.337L176.336 9.93202ZM191.537 9.11391L191.352 9.13214L190.311 9.80443L190.264 9.96848C190.879 10.5861 191.275 11.1136 191.706 11.8588H191.887L192.95 11.1683L193 10.986C192.585 10.2591 192.107 9.67791 191.537 9.11391ZM163.741 8.71397L162.699 9.38626L162.652 9.55031C163.269 10.1679 163.664 10.6954 164.094 11.4406H164.276L165.338 10.7501L165.389 10.5679C164.973 9.84088 164.496 9.25867 163.926 8.69575L163.741 8.71397ZM110.519 5.46084L113.545 4.14629L113.656 3.94364C113.315 2.72989 112.477 0.910319 111.959 0.126523L111.787 0.100789L108.993 1.23842L108.886 1.41534C109.405 2.47684 110.052 4.24708 110.309 5.35898L110.518 5.45977L110.519 5.46084ZM111.26 15.143L108.278 14.638L108.049 14.7892L107.996 15.0926C107.397 18.5055 106.226 20.1493 103.738 21.4134C103.803 21.1861 103.848 20.9331 103.891 20.68L105.111 13.45L106.634 4.77891L107.358 1.08831L107.213 0.911392L104.48 0.98752H102.239L99.5331 0.911392L99.3259 1.08831L98.7534 4.77891L97.2754 13.1969C96.405 18.1517 95.6798 19.8458 94.3908 22.0203L95.8902 24.0929C95.9938 24.2194 96.0814 24.2955 96.1818 24.2955C96.3078 24.2955 96.4509 24.1948 96.6079 24.0178C98.0486 22.1221 99.0322 19.8212 99.9058 15.8518H101.442L100.723 19.9477C100.607 20.6049 100.423 20.6553 100.01 20.7057C99.8086 20.7057 99.6281 20.7315 99.4017 20.7315C99.1999 20.7315 98.9531 20.7057 98.5751 20.7057L98.9649 23.7895C98.9959 24.0425 99.0631 24.0929 99.5662 24.0929C101.506 24.0929 102.582 23.8399 103.213 22.8287L104.262 24.169C104.341 24.2955 104.483 24.3459 104.634 24.3459C104.71 24.3459 104.81 24.3459 104.894 24.2955C108.157 22.7783 110.247 20.6296 111.401 15.3457L111.26 15.143ZM101.952 12.9439H100.492L101.052 9.75832H102.512L101.952 12.9439ZM103.022 6.85152H101.562L102.081 3.89325H103.541L103.022 6.85152ZM117.08 0.0761283C116.231 1.89677 115.198 3.76673 114.043 5.61203H110.341L107.887 5.5359L107.68 5.71282L107.325 8.165L106.788 11.2241L106.191 13.9035L106.332 14.1062L109.015 14.0301H112.238L111.776 16.6592L110.869 21.5378C110.457 23.7369 111.134 24.0404 113.803 24.0404C115.843 24.0404 116.714 23.813 117.61 23.1558C118.357 22.625 118.765 21.7404 119.123 20.2736C119.215 19.8941 119.237 19.7675 119.268 19.5906C119.295 19.4394 119.257 19.3633 119.07 19.2872L116.548 18.3007C116.018 20.6017 115.886 20.7787 115.005 20.7787C114.526 20.7787 114.46 20.7283 114.553 20.1975L115.636 14.029H115.762L118.368 14.1051L118.609 13.8778L118.986 11.2991L119.537 8.16392L120.044 5.71174L119.898 5.53483L117.417 5.61095C118.31 4.3972 119.157 3.15878 120.227 1.51505L120.276 1.23735L117.346 -0.00107193L117.081 0.0750561L117.08 0.0761283ZM115.546 11.0986H110.107L110.56 8.5199H115.999L115.546 11.0986ZM141.367 13.361L133.97 14.044L134.511 10.9603L138.934 10.5807L142.789 10.2773L142.962 10.1508L143.219 7.11743L143.06 7.01664L139.178 7.47127L135.062 7.8251L135.555 5.01909C137.975 4.71565 140.555 4.36181 143.876 3.80533L143.996 3.55228C143.23 2.46505 142.453 1.73164 141.65 0.999314L141.407 0.94892C136.592 1.98576 131.441 2.64304 124.178 2.84461L125.255 5.60023C125.313 5.70102 125.446 5.80288 125.698 5.80288H125.799C127.989 5.80288 129.922 5.54984 131.762 5.39865L131.279 8.15427L128.132 8.43198L124.256 8.70969L124.099 8.8866L123.856 11.8449L124.036 11.9714L127.888 11.5414L130.728 11.2884L130.182 14.3978L125.192 14.8525L121.315 15.1302L121.163 15.2824L120.916 18.2654L121.07 18.3919L124.922 17.9619L129.605 17.532L129.018 20.591C128.421 23.7005 129.044 24.3073 134.937 24.3073C140.831 24.3073 141.416 23.9782 142.394 23.144C143.105 22.5371 143.685 21.526 144.234 18.973C144.279 18.72 144.292 18.6439 144.058 18.5431L141.156 17.4312C140.792 19.0749 140.591 19.9337 140.029 20.4141C139.406 20.9448 138.395 20.9706 135.726 20.9706C132.83 20.9706 132.763 20.9202 132.87 20.3133L133.416 17.2039L141.119 16.4962L144.974 16.1927L145.147 16.0662L145.408 13.0072L145.25 12.9064L141.368 13.361H141.367ZM161.856 9.85911L160.796 10.5314L160.749 10.6954C161.365 11.313 161.766 11.9135 162.196 12.6587H162.378L163.498 11.9499L163.549 11.7677C163.133 11.0407 162.611 10.4049 162.041 9.84088L161.857 9.85911H161.856ZM160.22 13.0951H157.196C157.397 12.2588 157.579 11.3323 157.757 10.3148L157.652 10.1872H154.936L154.784 10.333C154.602 11.3688 154.406 12.2781 154.226 13.0951H152.253L149.728 13.0404L149.546 13.1498L149.128 15.5312L149.229 15.677L151.827 15.6223H153.492C153.089 16.7857 152.594 17.7485 152.012 18.5849C150.587 20.621 148.721 21.9656 146.142 23.1472L147.919 24.674C148.078 24.8016 148.14 24.8552 148.231 24.8552C148.285 24.8552 148.364 24.8188 148.463 24.7641C150.828 23.5643 152.807 22.0921 154.517 19.6753C155.358 18.4937 155.983 17.2039 156.496 15.6223H159.084C158.728 17.2403 158.203 19.0942 157.792 20.0935C157.193 21.5474 156.809 21.675 156.247 21.675H155.721C155.232 21.675 154.765 21.6568 154.243 21.6386L154.865 24.183C154.941 24.4735 154.952 24.51 155.423 24.51C158.7 24.51 159.417 23.4195 160.399 21.0199C160.998 19.566 161.909 16.1306 162.55 13.2045L162.452 13.0404L160.215 13.0951H160.22Z" fill="url(#paint1_linear_294_55)"/>
</g>
<defs>
<linearGradient id="paint0_linear_294_55" x1="12.852" y1="-1.11619" x2="50.2548" y2="36.0294" gradientUnits="userSpaceOnUse">
<stop stop-color="#00B7EE"/>
<stop offset="0.4" stop-color="#0089AE"/>
<stop offset="1" stop-color="#001929"/>
</linearGradient>
<linearGradient id="paint1_linear_294_55" x1="47.4992" y1="-2.32244" x2="194.885" y2="36.7106" gradientUnits="userSpaceOnUse">
<stop offset="0.14" stop-color="#00B7EE"/>
<stop offset="0.48" stop-color="#002C3B"/>
<stop offset="0.62" stop-color="#0089AE"/>
<stop offset="1" stop-color="#001929"/>
</linearGradient>
<clipPath id="clip0_294_55">
<rect width="196" height="25" fill="white"/>
</clipPath>
</defs>
</svg>
